<svg width="35" height="55" viewBox="0 0 35 55" fill="none" xmlns="http://www.w3.org/2000/svg">
<path d="M0.429354 27.3691L17.0513 37.113C17.1834 37.1906 17.3338 37.2315 17.4869 37.2315C17.6401 37.2315 17.7905 37.1906 17.9225 37.113L34.5445 27.3691C34.6447 27.3103 34.732 27.2319 34.801 27.1385C34.8701 27.0451 34.9195 26.9386 34.9463 26.8256C34.9731 26.7126 34.9767 26.5953 34.9569 26.4808C34.9371 26.3664 34.8943 26.2571 34.8311 26.1597L18.2091 0.366954C18.1261 0.253259 18.0175 0.160765 17.892 0.097C17.7665 0.0332349 17.6277 0 17.4869 0C17.3462 0 17.2074 0.0332349 17.0819 0.097C16.9564 0.160765 16.8477 0.253259 16.7647 0.366954L0.142768 26.1597C0.0795802 26.2571 0.0367971 26.3664 0.0170018 26.4808C-0.00279343 26.5953 0.000809739 26.7126 0.0275931 26.8256C0.0543765 26.9386 0.103785 27.0451 0.172836 27.1385C0.241887 27.2319 0.329149 27.3103 0.429354 27.3691ZM18.3467 34.8833V23.2021L28.7612 26.2686C28.9801 26.3332 29.2157 26.3082 29.4162 26.1991C29.6167 26.09 29.7656 25.9057 29.8302 25.6868C29.8948 25.4679 29.8698 25.2323 29.7607 25.0318C29.6516 24.8314 29.4673 24.6824 29.2484 24.6178L18.3582 21.4081V3.76586L32.8995 26.3374L18.3467 34.8833ZM16.6272 3.76586V34.8833L2.07436 26.3374L16.6272 3.76586Z" fill="black"/>
<path d="M34.7622 32.3727C34.6328 32.2223 34.4554 32.1214 34.26 32.0869C34.0647 32.0524 33.8634 32.0866 33.6903 32.1835L17.5384 41.2626H17.4352L1.28324 32.195C1.11006 32.097 0.908247 32.0621 0.712211 32.0962C0.516175 32.1304 0.338053 32.2315 0.20822 32.3823C0.0783859 32.5331 0.00487976 32.7242 0.000234466 32.9232C-0.00441083 33.1221 0.0600925 33.3165 0.182746 33.4732L16.8047 54.6805L16.8334 54.7092L16.9136 54.7951L16.9652 54.841L17.0626 54.904L17.12 54.9327L17.2461 54.9786H17.2976C17.4202 55.0072 17.5477 55.0072 17.6702 54.9786H17.7218L17.8479 54.9327L17.9052 54.904L18.0026 54.841L18.0542 54.7951L18.1345 54.7092L18.1631 54.6805L34.7851 33.4732C34.9106 33.316 34.977 33.1198 34.9728 32.9188C34.9687 32.7177 34.8941 32.5245 34.7622 32.3727ZM16.627 42.7815V51.6656L4.19495 35.8117L16.627 42.7815ZM18.3466 51.6656V42.7815L30.7786 35.8117L18.3466 51.6656Z" fill="black"/>
<path d="M14.0477 22.7206C14.0249 22.6063 13.979 22.4978 13.9129 22.4017C13.8468 22.3056 13.7618 22.224 13.6631 22.1618C13.5645 22.0996 13.4542 22.0581 13.339 22.0399C13.2238 22.0217 13.1061 22.0271 12.9931 22.0558L5.54186 23.7753C5.31383 23.827 5.11568 23.9671 4.99099 24.1649C4.8663 24.3627 4.82529 24.6019 4.87698 24.8299C4.92866 25.0579 5.06881 25.2561 5.26659 25.3808C5.46438 25.5055 5.70359 25.5465 5.93161 25.4948L13.3828 23.7753C13.4972 23.7524 13.6057 23.7065 13.7018 23.6404C13.7979 23.5743 13.8795 23.4893 13.9417 23.3907C14.0039 23.292 14.0454 23.1818 14.0636 23.0666C14.0818 22.9514 14.0764 22.8337 14.0477 22.7206Z" fill="black"/>
</svg>
