<svg width="41" height="30" viewBox="0 0 41 30" fill="none" xmlns="http://www.w3.org/2000/svg">
<path d="M39.75 0H0.75C0.551088 0 0.360322 0.079018 0.21967 0.21967C0.0790175 0.360323 0 0.551088 0 0.75V28.75C0 28.9489 0.0790175 29.1397 0.21967 29.2803C0.360322 29.421 0.551088 29.5 0.75 29.5H39.75C39.9489 29.5 40.1397 29.421 40.2803 29.2803C40.421 29.1397 40.5 28.9489 40.5 28.75V0.75C40.5 0.551088 40.421 0.360323 40.2803 0.21967C40.1397 0.079018 39.9489 0 39.75 0ZM39 28H1.5V1.5H39V28Z" fill="black"/>
<path d="M32.5 14.78C32.4971 16.3618 32.1679 17.926 31.533 19.3748C30.8981 20.8236 29.9711 22.1258 28.81 23.2C28.6884 23.3383 28.6218 23.5165 28.6231 23.7007C28.6244 23.8849 28.6934 24.0621 28.817 24.1987C28.9406 24.3352 29.1101 24.4215 29.2932 24.4412C29.4764 24.4608 29.6603 24.4123 29.81 24.305C31.1332 23.088 32.1884 21.6086 32.9083 19.9612C33.6282 18.3139 33.9971 16.5346 33.9915 14.7368C33.9858 12.939 33.6058 11.1621 32.8755 9.51927C32.1453 7.87646 31.0808 6.40377 29.75 5.19503C29.6002 5.08255 29.4137 5.03021 29.2273 5.04831C29.0408 5.0664 28.8679 5.15362 28.7425 5.2928C28.6171 5.43198 28.5483 5.61305 28.5497 5.80037C28.5511 5.9877 28.6226 6.16772 28.75 6.30503C29.9302 7.37909 30.8734 8.68761 31.5191 10.1469C32.1648 11.6062 32.4989 13.1842 32.5 14.78Z" fill="black"/>
<path d="M11.17 24.3C11.2398 24.3794 11.3256 24.4431 11.4217 24.4869C11.5178 24.5308 11.6222 24.5539 11.7278 24.5546C11.8335 24.5554 11.9381 24.5338 12.0349 24.4912C12.1316 24.4487 12.2183 24.3862 12.2892 24.3079C12.3601 24.2295 12.4136 24.1371 12.4463 24.0366C12.479 23.9361 12.4901 23.8298 12.4788 23.7248C12.4676 23.6197 12.4342 23.5182 12.381 23.4269C12.3278 23.3356 12.2559 23.2566 12.17 23.195C11.0034 22.1168 10.074 20.8075 9.44077 19.3506C8.80756 17.8937 8.48445 16.321 8.49197 14.7324C8.4995 13.1439 8.8375 11.5743 9.48447 10.1234C10.1315 8.67255 11.0733 7.37219 12.25 6.30503C12.3774 6.16772 12.4489 5.9877 12.4503 5.80037C12.4517 5.61305 12.3829 5.43198 12.2575 5.2928C12.1321 5.15362 11.9592 5.0664 11.7727 5.04831C11.5863 5.03021 11.3998 5.08255 11.25 5.19503C9.91971 6.40309 8.8554 7.87479 8.12478 9.51652C7.39415 11.1582 7.0132 12.9341 7.00614 14.731C6.99909 16.528 7.36609 18.3067 8.0838 19.9541C8.80152 21.6015 9.85423 23.0816 11.175 24.3H11.17Z" fill="black"/>
<path d="M13.915 10.895L14.6 10.75L16.9 19.955L16.575 20.03C16.4791 20.0526 16.3887 20.0939 16.3088 20.1515C16.2289 20.2092 16.1611 20.2819 16.1093 20.3657C16.0576 20.4496 16.0228 20.5427 16.0071 20.64C15.9913 20.7372 15.9949 20.8366 16.0175 20.9325C16.0402 21.0283 16.0815 21.1188 16.1391 21.1987C16.1967 21.2786 16.2695 21.3464 16.3533 21.3981C16.4371 21.4499 16.5303 21.4846 16.6275 21.5004C16.7248 21.5162 16.8241 21.5126 16.92 21.49L23.95 19.82C24.9402 19.6074 25.8062 19.0118 26.3589 18.1631C26.9116 17.3144 27.1061 16.2816 26.9 15.29C26.44 13.71 25.08 12.975 23.585 12.83C23.9779 12.1403 24.094 11.3271 23.91 10.555C23.475 8.75996 21.52 7.65996 19.555 8.09996L13.585 9.42996C13.3907 9.47306 13.2215 9.59156 13.1146 9.75941C13.0077 9.92725 12.9719 10.1307 13.015 10.325C13.0581 10.5192 13.1766 10.6884 13.3445 10.7953C13.5123 10.9022 13.7157 10.9381 13.91 10.895H13.915ZM25.45 15.665C25.5585 16.2665 25.4257 16.8866 25.0804 17.391C24.7351 17.8954 24.2051 18.2435 23.605 18.36L18.36 19.6L17.33 15.48L21.115 14.635C21.2503 14.6037 21.3838 14.5653 21.515 14.52L21.86 14.435C22.905 14.19 25.005 14.135 25.45 15.665ZM19.885 9.55996C21.04 9.29996 22.22 9.91996 22.46 10.905C22.5124 11.1215 22.5208 11.3464 22.4848 11.5662C22.4487 11.7861 22.3689 11.9965 22.25 12.185C21.9559 12.6336 21.5106 12.9619 20.995 13.11L20.225 13.3L17.01 14.02L16.105 10.405L19.885 9.55996Z" fill="black"/>
</svg>
