<svg width="50" height="50" viewBox="0 0 50 50" fill="none" xmlns="http://www.w3.org/2000/svg">
<g clip-path="url(#clip0_157_3944)">
<path d="M15.3126 25.4237C15.3126 26.8546 16.4767 28.0192 17.9081 28.0192C19.3395 28.0192 20.5035 26.8546 20.5035 25.4237C20.5035 23.9928 19.339 22.8283 17.9081 22.8283C16.4772 22.8283 15.3126 23.9928 15.3126 25.4237ZM19.0035 25.4237C19.0035 26.0277 18.512 26.5191 17.9081 26.5191C17.3041 26.5191 16.8127 26.0277 16.8127 25.4237C16.8127 24.8198 17.3041 24.3284 17.9081 24.3284C18.512 24.3284 19.0035 24.8198 19.0035 25.4237Z" fill="black"/>
<path d="M40.9141 17.3725C40.5502 17.1754 40.0949 17.308 39.8962 17.6714C39.6974 18.0348 39.8316 18.4906 40.195 18.6894C45.3488 21.5021 48.4253 26.0411 48.4253 30.8309C48.4253 35.2444 46.6615 38.5032 42.7064 41.3975C42.5598 41.5054 42.457 41.6629 42.4168 41.8399L40.9384 48.4999H38.171L37.2899 45.1059C37.2362 44.901 37.0989 44.7275 36.911 44.6295C36.7231 44.5314 36.5011 44.518 36.3029 44.5913C33.8479 45.5034 31.9875 45.7961 28.6451 45.7961C25.472 45.7961 23.2038 45.5731 20.312 44.3982C20.1092 44.3151 19.8805 44.3254 19.6864 44.4261C19.4918 44.5262 19.3509 44.7069 19.3003 44.9196L18.4496 48.5005H15.7065L14.2498 41.3155C14.2106 41.1224 14.097 40.9526 13.9339 40.8426C7.68888 36.6356 4.52303 33.0057 4.52303 30.053V27.2206C4.52303 26.005 5.38353 25.0159 6.44071 25.0159H9.77175L9.83679 25.0154C9.86622 25.0149 9.89306 25.0133 9.92197 25.0159C10.2085 25.0422 10.4882 24.9034 10.6369 24.6546C11.7158 22.853 13.2793 21.2296 15.2837 19.8297C15.4845 19.6892 15.6043 19.4595 15.6043 19.2149V12.9786C18.2798 13.2579 20.1649 15.0027 20.8892 16.7335C21.0487 17.1155 21.4885 17.2956 21.8705 17.1361C22.2524 16.9761 22.4331 16.5368 22.2731 16.1548C21.2918 13.8082 18.6174 11.4398 14.8543 11.4398C14.4398 11.4398 14.1042 11.7754 14.1042 12.1899V18.8282C12.2108 20.2029 10.6906 21.7768 9.57766 23.5158H6.44071C4.55606 23.5158 3.02295 25.178 3.02295 27.2206V30.053C3.02295 35.1329 10.1253 40.0802 12.84 41.9143L14.3577 49.3992C14.4284 49.7486 14.7355 50 15.0927 50H19.0422C19.3896 50 19.6916 49.7615 19.7721 49.4234L20.5614 46.1006C23.3029 47.0964 25.5799 47.2956 28.6451 47.2956C31.4718 47.2956 33.4793 47.1294 36.0433 46.2736L36.865 49.4384C36.9507 49.7693 37.2491 50 37.5908 50H41.5403C41.8918 50 42.1964 49.7553 42.2728 49.4126L43.8214 42.4387C47.984 39.3121 49.9259 35.6166 49.9259 30.8309C49.9259 25.4831 46.5567 20.4522 40.9141 17.3725Z" fill="black"/>
<path d="M26.0697 19.5008C26.2969 19.5132 26.5085 19.4218 26.6582 19.2567C27.6762 18.1401 29.3084 17.4737 31.0237 17.4737C32.7251 17.4737 34.3047 18.1381 35.3577 19.2964C35.4997 19.4533 35.702 19.5421 35.9126 19.5421C35.923 19.5421 35.9328 19.5421 35.9431 19.5416C36.1651 19.5328 36.3715 19.426 36.5073 19.2499C37.4458 18.0317 37.9413 16.5729 37.9408 15.0321C37.9408 11.2179 34.8374 8.11499 31.0237 8.11499C27.21 8.11499 24.1066 11.2179 24.1066 15.0321C24.1066 16.5523 24.5908 17.9956 25.5066 19.2045C25.6408 19.3816 25.8473 19.4905 26.0697 19.5008ZM31.0237 9.61455C34.0104 9.61455 36.4407 12.0448 36.4407 15.0321C36.4412 15.955 36.2146 16.8398 35.7795 17.6311C34.4936 16.5688 32.8082 15.9736 31.0242 15.9736C29.2149 15.9736 27.5223 16.5538 26.2468 17.5893C25.8266 16.8078 25.6072 15.9375 25.6072 15.0316C25.6067 12.0448 28.0365 9.61455 31.0237 9.61455Z" fill="black"/>
</g>
<defs>
<clipPath id="clip0_157_3944">
<rect width="50" height="50" fill="white"/>
</clipPath>
</defs>
</svg>
