<svg width="42" height="42" viewBox="0 0 42 42" fill="none" xmlns="http://www.w3.org/2000/svg">
<path d="M33.7595 0H8.24051C6.05585 0.00281347 3.96148 0.871911 2.4167 2.4167C0.871911 3.96148 0.00281347 6.05585 0 8.24051V33.7595C0.00281347 35.9441 0.871911 38.0385 2.4167 39.5833C3.96148 41.1281 6.05585 41.9972 8.24051 42H33.7595C35.9441 41.9972 38.0385 41.1281 39.5833 39.5833C41.1281 38.0385 41.9972 35.9441 42 33.7595V8.24051C41.9972 6.05585 41.1281 3.96148 39.5833 2.4167C38.0385 0.871911 35.9441 0.00281347 33.7595 0ZM40.4051 8.24051V20.2025H21.7975V1.59494H33.7595C35.5216 1.59634 37.2111 2.29695 38.4571 3.54293C39.703 4.78892 40.4037 6.47842 40.4051 8.24051ZM8.24051 1.59494H20.2025V20.2025H1.59494V8.24051C1.59634 6.47842 2.29695 4.78892 3.54293 3.54293C4.78892 2.29695 6.47842 1.59634 8.24051 1.59494ZM1.59494 33.7595V21.7975H20.2025V40.4051H8.24051C6.47842 40.4037 4.78892 39.703 3.54293 38.4571C2.29695 37.2111 1.59634 35.5216 1.59494 33.7595ZM33.7595 40.4051H21.7975V21.7975H40.4051V33.7595C40.4037 35.5216 39.703 37.2111 38.4571 38.4571C37.2111 39.703 35.5216 40.4037 33.7595 40.4051Z" fill="black"/>
<path d="M6.64558 12.2279H10.1013V15.6836C10.1013 15.8951 10.1853 16.0979 10.3349 16.2475C10.4844 16.397 10.6872 16.481 10.8987 16.481C11.1102 16.481 11.3131 16.397 11.4626 16.2475C11.6122 16.0979 11.6962 15.8951 11.6962 15.6836V12.2279H15.1519C15.3634 12.2279 15.5663 12.1438 15.7158 11.9943C15.8654 11.8447 15.9494 11.6419 15.9494 11.4304C15.9494 11.2189 15.8654 11.0161 15.7158 10.8665C15.5663 10.7169 15.3634 10.6329 15.1519 10.6329H11.6962V7.17723C11.6962 6.96573 11.6122 6.76289 11.4626 6.61333C11.3131 6.46378 11.1102 6.37976 10.8987 6.37976C10.6872 6.37976 10.4844 6.46378 10.3349 6.61333C10.1853 6.76289 10.1013 6.96573 10.1013 7.17723V10.6329H6.64558C6.43408 10.6329 6.23124 10.7169 6.08169 10.8665C5.93213 11.0161 5.84811 11.2189 5.84811 11.4304C5.84811 11.6419 5.93213 11.8447 6.08169 11.9943C6.23124 12.1438 6.43408 12.2279 6.64558 12.2279Z" fill="black"/>
<path d="M26.8481 12.2278H35.3544C35.5659 12.2278 35.7688 12.1438 35.9183 11.9942C36.0679 11.8447 36.1519 11.6418 36.1519 11.4303C36.1519 11.2188 36.0679 11.016 35.9183 10.8664C35.7688 10.7169 35.5659 10.6329 35.3544 10.6329H26.8481C26.6366 10.6329 26.4337 10.7169 26.2842 10.8664C26.1346 11.016 26.0506 11.2188 26.0506 11.4303C26.0506 11.6418 26.1346 11.8447 26.2842 11.9942C26.4337 12.1438 26.6366 12.2278 26.8481 12.2278Z" fill="black"/>
<path d="M35.3544 29.7721H26.8481C26.6366 29.7721 26.4337 29.8561 26.2842 30.0057C26.1346 30.1552 26.0506 30.3581 26.0506 30.5696C26.0506 30.7811 26.1346 30.9839 26.2842 31.1335C26.4337 31.283 26.6366 31.367 26.8481 31.367H35.3544C35.5659 31.367 35.7688 31.283 35.9183 31.1335C36.0679 30.9839 36.1519 30.7811 36.1519 30.5696C36.1519 30.3581 36.0679 30.1552 35.9183 30.0057C35.7688 29.8561 35.5659 29.7721 35.3544 29.7721Z" fill="black"/>
<path d="M12.5574 30.5696L15.1838 27.9432C15.3246 27.7921 15.4013 27.5921 15.3977 27.3855C15.394 27.1789 15.3103 26.9818 15.1642 26.8357C15.0181 26.6896 14.821 26.6059 14.6144 26.6022C14.4078 26.5986 14.2078 26.6753 14.0567 26.8161L11.4303 29.4425L8.80402 26.8161C8.65284 26.6753 8.4529 26.5986 8.2463 26.6022C8.0397 26.6059 7.84258 26.6896 7.69647 26.8357C7.55036 26.9818 7.46666 27.1789 7.46302 27.3855C7.45937 27.5921 7.53606 27.7921 7.67693 27.9432L10.3033 30.5696L7.67693 33.1959C7.59858 33.2689 7.53573 33.3569 7.49215 33.4548C7.44856 33.5526 7.42512 33.6582 7.42324 33.7653C7.42135 33.8723 7.44104 33.9787 7.48115 34.078C7.52126 34.1773 7.58096 34.2675 7.65668 34.3432C7.73241 34.4189 7.82261 34.4786 7.92191 34.5188C8.02121 34.5589 8.12757 34.5786 8.23465 34.5767C8.34172 34.5748 8.44732 34.5513 8.54515 34.5078C8.64297 34.4642 8.73101 34.4013 8.80402 34.323L11.4303 31.6967L14.0567 34.323C14.2078 34.4638 14.4078 34.5405 14.6144 34.5369C14.821 34.5332 15.0181 34.4495 15.1642 34.3034C15.3103 34.1573 15.394 33.9602 15.3977 33.7536C15.4013 33.547 15.3246 33.3471 15.1838 33.1959L12.5574 30.5696Z" fill="black"/>
<path d="M31.1013 28.443C31.6885 28.443 32.1646 27.967 32.1646 27.3798C32.1646 26.7925 31.6885 26.3165 31.1013 26.3165C30.514 26.3165 30.038 26.7925 30.038 27.3798C30.038 27.967 30.514 28.443 31.1013 28.443Z" fill="black"/>
<path d="M31.1013 34.8228C31.6885 34.8228 32.1646 34.3468 32.1646 33.7595C32.1646 33.1723 31.6885 32.6962 31.1013 32.6962C30.514 32.6962 30.038 33.1723 30.038 33.7595C30.038 34.3468 30.514 34.8228 31.1013 34.8228Z" fill="black"/>
</svg>
