<svg width="48" height="46" viewBox="0 0 48 46" fill="none" xmlns="http://www.w3.org/2000/svg">
<path d="M38.3527 10.7354C37.0237 10.7355 35.7087 11.0079 34.489 11.5357C34.1534 8.35114 32.6442 5.40561 30.2554 3.27312C27.8665 1.14062 24.7693 -0.0260557 21.5672 0.000441641C14.431 0.000441641 8.59455 5.69415 8.59455 12.6928C8.59447 13.4797 8.66958 14.2649 8.81884 15.0376C7.80548 14.8291 6.75951 14.8373 5.74953 15.0615C4.73955 15.2857 3.78836 15.7208 2.95836 16.3384C2.12836 16.956 1.43829 17.7421 0.933408 18.6451C0.428525 19.5481 0.120233 20.5477 0.0287528 21.5782C-0.0627279 22.6087 0.0646686 23.6469 0.402587 24.6247C0.740506 25.6025 1.28131 26.4979 1.98954 27.252C2.69777 28.0062 3.55742 28.6021 4.51212 29.0007C5.46682 29.3993 6.49499 29.5916 7.52921 29.5649H7.78408C7.98686 29.5649 8.18134 29.4844 8.32473 29.341C8.46812 29.1976 8.54868 29.0031 8.54868 28.8003C8.54868 28.5975 8.46812 28.4031 8.32473 28.2597C8.18134 28.1163 7.98686 28.0357 7.78408 28.0357H7.52921C6.75332 28.0587 5.98069 27.9258 5.25712 27.6448C4.53354 27.3637 3.87373 26.9403 3.31677 26.3996C2.75981 25.8589 2.31704 25.212 2.01468 24.497C1.71231 23.7821 1.55652 23.0138 1.55652 22.2375C1.55652 21.4613 1.71231 20.6929 2.01468 19.978C2.31704 19.2631 2.75981 18.6161 3.31677 18.0754C3.87373 17.5347 4.53354 17.1113 5.25712 16.8303C5.98069 16.5493 6.75332 16.4163 7.52921 16.4393C8.23887 16.4408 8.94276 16.5668 9.60892 16.8114C9.74266 16.8605 9.88744 16.8712 10.0269 16.8424C10.1664 16.8135 10.2951 16.7463 10.3985 16.6483C10.5018 16.5502 10.5757 16.4253 10.6118 16.2875C10.6479 16.1497 10.6448 16.0045 10.6029 15.8684C10.2871 14.8376 10.1256 13.7658 10.1238 12.6877C10.1238 6.53012 15.2568 1.52454 21.5672 1.52454C27.8777 1.52454 33.0107 6.53521 33.0107 12.6673C33.0107 12.6673 33.0107 12.7387 33.0107 12.759C33.0105 12.8944 33.0462 13.0274 33.1141 13.1444C33.1821 13.2614 33.2799 13.3583 33.3976 13.4252C33.5152 13.4921 33.6485 13.5265 33.7839 13.525C33.9192 13.5235 34.0517 13.4861 34.1678 13.4166C35.4357 12.6633 36.8831 12.2654 38.3578 12.2646C39.4041 12.227 40.4474 12.3982 41.4267 12.7682C42.4061 13.1383 43.3019 13.6998 44.0618 14.4199C44.8217 15.14 45.4305 16.0044 45.8526 16.9624C46.2748 17.9205 46.5018 18.953 46.5204 19.9998C46.5391 21.0465 46.3489 22.0865 45.9611 23.059C45.5733 24.0314 44.9957 24.9169 44.2618 25.6636C43.528 26.4103 42.6528 27.0033 41.6872 27.408C40.7216 27.8126 39.6851 28.0208 38.6382 28.0204H38.5159H35.5237C35.3209 28.0204 35.1265 28.101 34.9831 28.2444C34.8397 28.3878 34.7591 28.5823 34.7591 28.785C34.7591 28.9878 34.8397 29.1823 34.9831 29.3257C35.1265 29.4691 35.3209 29.5496 35.5237 29.5496H38.6586C38.7178 29.5567 38.7777 29.5567 38.837 29.5496C41.3306 29.4854 43.6965 28.4333 45.4143 26.6246C47.1321 24.816 48.0611 22.3991 47.9969 19.9055C47.9327 17.4119 46.8805 15.046 45.0719 13.3282C43.2633 11.6104 40.8463 10.6814 38.3527 10.7456V10.7354Z" fill="black"/>
<path d="M36.4667 37.945L31.6548 42.7569V20.1349C31.6548 19.9322 31.5743 19.7377 31.4309 19.5943C31.2875 19.4509 31.093 19.3703 30.8902 19.3703C30.6875 19.3703 30.493 19.4509 30.3496 19.5943C30.2062 19.7377 30.1256 19.9322 30.1256 20.1349V42.7569L25.3138 37.945C25.2438 37.8699 25.1594 37.8096 25.0656 37.7678C24.9718 37.726 24.8705 37.7036 24.7679 37.7018C24.6652 37.7 24.5632 37.7188 24.468 37.7573C24.3728 37.7958 24.2863 37.853 24.2137 37.9256C24.1411 37.9982 24.0839 38.0847 24.0454 38.1799C24.007 38.2751 23.9881 38.3771 23.9899 38.4797C23.9917 38.5824 24.0142 38.6836 24.056 38.7774C24.0978 38.8712 24.158 38.9556 24.2331 39.0256L30.3499 45.1424C30.4933 45.2856 30.6876 45.366 30.8902 45.366C31.0929 45.366 31.2872 45.2856 31.4306 45.1424L37.5473 39.0256C37.6824 38.8807 37.7559 38.689 37.7524 38.4909C37.7489 38.2928 37.6687 38.1038 37.5286 37.9637C37.3885 37.8236 37.1995 37.7434 37.0014 37.7399C36.8034 37.7364 36.6117 37.8099 36.4667 37.945Z" fill="black"/>
<path d="M24.2945 25.7115L18.1777 19.5947C18.0344 19.4515 17.84 19.3711 17.6374 19.3711C17.4348 19.3711 17.2404 19.4515 17.0971 19.5947L10.9803 25.7115C10.8452 25.8564 10.7717 26.0481 10.7752 26.2462C10.7787 26.4443 10.8589 26.6333 10.999 26.7734C11.1391 26.9135 11.3281 26.9937 11.5262 26.9972C11.7243 27.0007 11.916 26.9272 12.0609 26.7921L16.8728 21.9803V44.6022C16.8728 44.805 16.9534 44.9994 17.0968 45.1428C17.2401 45.2862 17.4346 45.3668 17.6374 45.3668C17.8402 45.3668 18.0347 45.2862 18.1781 45.1428C18.3214 44.9994 18.402 44.805 18.402 44.6022V21.9803L23.2139 26.7921C23.3588 26.9272 23.5505 27.0007 23.7486 26.9972C23.9467 26.9937 24.1357 26.9135 24.2758 26.7734C24.4159 26.6333 24.4961 26.4443 24.4996 26.2462C24.5031 26.0481 24.4296 25.8564 24.2945 25.7115Z" fill="black"/>
<path d="M28.1327 10.715C28.2146 10.8848 28.3564 11.0184 28.5309 11.09C28.7053 11.1616 28.9 11.1663 29.0777 11.1031C29.2553 11.0399 29.4033 10.9132 29.4933 10.7475C29.5833 10.5818 29.6088 10.3887 29.565 10.2053C28.9847 8.58075 27.9219 7.17229 26.519 6.1684C25.1161 5.16452 23.4401 4.61312 21.7152 4.58801C21.5124 4.58801 21.3179 4.66857 21.1745 4.81196C21.0311 4.95535 20.9506 5.14983 20.9506 5.35261C20.9506 5.5554 21.0311 5.74987 21.1745 5.89326C21.3179 6.03665 21.5124 6.11721 21.7152 6.11721C23.1256 6.13964 24.4956 6.59181 25.6423 7.41335C26.789 8.2349 27.6578 9.38671 28.1327 10.715Z" fill="black"/>
</svg>
