<svg width="50" height="50" viewBox="0 0 50 50" fill="none" xmlns="http://www.w3.org/2000/svg">
<path d="M41.94 24.305C41.876 24.2591 41.8051 24.2236 41.73 24.2C41.5276 19.9346 39.699 15.9088 36.62 12.95C37.4 9.90002 37.465 7.40502 36.775 5.70502C36.5996 5.22705 36.3281 4.79011 35.9772 4.42118C35.6263 4.05225 35.2036 3.75916 34.735 3.56002C33.065 2.86502 30.84 3.33002 28.12 4.94002C27.9526 5.04325 27.8324 5.20809 27.7854 5.39905C27.7384 5.59001 27.7683 5.7918 27.8686 5.96095C27.9689 6.13011 28.1316 6.25309 28.3217 6.30342C28.5118 6.35375 28.7141 6.32739 28.885 6.23002C31.11 4.91002 33 4.45502 34.16 4.94502C34.4444 5.06963 34.7 5.25164 34.9108 5.47964C35.1216 5.70764 35.283 5.97672 35.385 6.27002C35.885 7.52002 35.86 9.46002 35.335 11.83C32.156 9.32476 28.1753 8.05932 24.1332 8.26901C20.0911 8.4787 16.2627 10.1493 13.36 12.97L13.24 12.945C7.43999 12.305 3.41999 13.25 2.49999 15.47C2.32477 15.934 2.24679 16.4291 2.27087 16.9246C2.29495 17.42 2.42059 17.9052 2.63999 18.35C3.41499 20.18 5.41999 22.255 8.27999 24.35C8.27999 24.57 8.27999 24.785 8.27999 25.01C8.27826 27.9246 9.04208 30.7884 10.495 33.315C10.4493 33.3839 10.4155 33.46 10.395 33.54C9.16999 38.805 9.77999 42.315 12.12 43.415C12.6134 43.6429 13.1516 43.7573 13.695 43.75C15.455 43.75 17.565 42.68 19.775 40.905C22.987 41.9699 26.4467 42.0349 29.6964 41.0912C32.9461 40.1475 35.8329 38.2397 37.975 35.62L38.445 35.67C39.2083 35.73 39.9283 35.76 40.605 35.76C44.41 35.76 46.79 34.83 47.545 33.035C48.47 30.755 46.5 27.66 41.94 24.305ZM25 9.75002C28.6433 9.7475 32.1661 11.0554 34.925 13.435C34.4981 14.8887 33.9821 16.3147 33.38 17.705C33.3018 17.888 33.2994 18.0946 33.3735 18.2793C33.4476 18.464 33.592 18.6118 33.775 18.69C33.958 18.7683 34.1646 18.7706 34.3493 18.6965C34.534 18.6224 34.6818 18.478 34.76 18.295C35.3133 17.0017 35.775 15.7717 36.145 14.605C38.576 17.2013 40.0202 20.5673 40.2267 24.1181C40.4331 27.6688 39.3887 31.1795 37.275 34.04C34.0528 33.6381 30.8733 32.947 27.775 31.975C28.94 30.33 30.05 28.595 31.065 26.83C31.44 26.18 31.805 25.515 32.16 24.83C32.2063 24.743 32.235 24.6478 32.2445 24.5497C32.2539 24.4516 32.244 24.3526 32.2152 24.2583C32.1864 24.1641 32.1393 24.0764 32.0767 24.0003C32.014 23.9243 31.937 23.8613 31.85 23.815C31.763 23.7687 31.6677 23.74 31.5696 23.7306C31.4715 23.7211 31.3725 23.731 31.2783 23.7598C31.184 23.7886 31.0964 23.8357 31.0203 23.8983C30.9443 23.961 30.8813 24.038 30.835 24.125C30.49 24.775 30.13 25.425 29.765 26.06C28.693 27.9245 27.5247 29.7319 26.265 31.475C25.0417 31.0717 23.79 30.6217 22.51 30.125C18.0458 28.4399 13.787 26.2543 9.81499 23.61C10.1661 19.8239 11.9171 16.305 14.7255 13.7416C17.5339 11.1783 21.1976 9.75494 25 9.75002ZM3.99999 17.75C3.86262 17.4882 3.77942 17.2014 3.75537 16.9068C3.73131 16.6121 3.7669 16.3156 3.85999 16.035C4.35999 14.86 7.07999 13.915 12.08 14.325C10.1229 16.6941 8.85806 19.5577 8.42499 22.6C6.18499 20.885 4.61999 19.21 3.99999 17.765V17.75ZM21.96 31.545C23.085 31.985 24.21 32.38 25.325 32.755C23.5814 35.0881 21.6173 37.2481 19.46 39.205C16.6625 38.1103 14.2502 36.2147 12.5248 33.7556C10.7994 31.2964 9.83767 28.383 9.75999 25.38C13.6009 27.8542 17.6898 29.9204 21.96 31.545ZM12.73 42.045C11.29 41.365 10.885 38.77 11.585 35.015C13.2928 37.297 15.5516 39.1085 18.15 40.28C16 41.92 14.05 42.68 12.73 42.055V42.045ZM25 40.25C23.6822 40.2532 22.3695 40.0851 21.095 39.75C23.2098 37.7655 25.1363 35.5896 26.85 33.25C29.8797 34.2179 32.9833 34.937 36.13 35.4C34.7074 36.9296 32.985 38.1496 31.0701 38.9841C29.1551 39.8185 27.0888 40.2495 25 40.25ZM46.13 32.45C45.565 33.8 42.945 34.45 38.99 34.195C40.6037 31.7508 41.5437 28.9239 41.715 26C45.04 28.605 46.725 31.035 46.13 32.45Z" fill="black"/>
<path d="M12.095 22.135C14.2097 23.4646 16.4113 24.6506 18.685 25.685C18.8628 25.7529 19.0598 25.7507 19.2361 25.6787C19.4123 25.6068 19.5546 25.4705 19.6341 25.2975C19.7135 25.1246 19.7243 24.9279 19.6641 24.7473C19.6039 24.5667 19.4773 24.4157 19.31 24.325C17.0985 23.3197 14.9571 22.1671 12.9 20.875C12.7324 20.7748 12.5323 20.7439 12.3422 20.7889C12.1522 20.834 11.9872 20.9513 11.8824 21.1161C11.7775 21.2808 11.7411 21.48 11.7808 21.6712C11.8205 21.8624 11.9332 22.0306 12.095 22.14V22.135Z" fill="black"/>
<path d="M25.12 26.145C25.2912 26.2454 25.4951 26.2739 25.6872 26.2242C25.8794 26.1746 26.044 26.0508 26.145 25.88C26.52 25.25 26.885 24.605 27.24 23.965C28.7854 21.1681 30.1127 18.2561 31.21 15.255C31.2602 15.0723 31.2393 14.8774 31.1517 14.7094C31.064 14.5414 30.916 14.4128 30.7374 14.3495C30.5589 14.2862 30.3629 14.2928 30.189 14.368C30.0151 14.4432 29.8762 14.5815 29.8 14.755C28.7308 17.6837 27.4369 20.5255 25.93 23.255C25.585 23.885 25.225 24.515 24.86 25.13C24.7623 25.2996 24.7348 25.5008 24.7834 25.6904C24.832 25.8801 24.9528 26.0432 25.12 26.145Z" fill="black"/>
</svg>
