<svg width="42" height="44" viewBox="0 0 42 44" fill="none" xmlns="http://www.w3.org/2000/svg">
<path d="M31.4018 18.5627C32.1949 18.227 33.0582 18.09 33.9165 18.1637C35.0404 18.0834 36.1282 17.7323 37.0867 17.1404C38.1678 16.5809 39.1256 15.8103 39.9033 14.8744C40.6809 13.9384 41.2627 12.8561 41.6141 11.6915C41.9614 10.5509 42.0759 9.35237 41.951 8.1668C41.8261 6.98123 41.4642 5.83277 40.8868 4.78948C39.6859 2.65592 37.6988 1.07492 35.3485 0.383064C32.9982 -0.308793 30.4704 -0.0568601 28.3033 1.08523C27.2221 1.64474 26.2644 2.41529 25.4867 3.35125C24.709 4.2872 24.1273 5.36954 23.7759 6.53416C23.4286 7.67468 23.314 8.87324 23.439 10.0588C23.5639 11.2444 23.9257 12.3928 24.5031 13.4361C24.5031 13.4719 24.5543 13.5436 24.5697 13.5743C25.0246 14.4761 25.1026 15.5214 24.7867 16.4807C24.4708 17.4399 23.7867 18.2348 22.8847 18.6906C21.9744 19.1693 20.9148 19.2807 19.9247 19.0018C18.9345 18.7228 18.0893 18.0748 17.5635 17.1915L17.4969 17.0841C16.2985 14.9479 14.3125 13.3636 11.962 12.6688C9.61149 11.974 7.0823 12.2237 4.91332 13.3645C3.83166 13.9246 2.87358 14.6959 2.09589 15.6328C1.31819 16.5697 0.7367 17.653 0.385899 18.8185C0.0386355 19.9591 -0.0759294 21.1576 0.048993 22.3432C0.173915 23.5288 0.535784 24.6772 1.11315 25.7205C2.31495 27.8532 4.30246 29.4331 6.65267 30.124C9.00288 30.8149 11.5302 30.5622 13.6967 29.4197C14.7161 28.9588 15.6074 28.2563 16.2933 27.3731C16.7128 26.6305 17.3113 26.0044 18.0346 25.5517C18.9662 25.065 20.0514 24.9617 21.0582 25.2638C22.065 25.5659 22.9136 26.2495 23.4225 27.1685C23.7148 27.6785 23.8817 28.2506 23.9093 28.8377C23.9369 29.4248 23.8245 30.0101 23.5812 30.5452C22.8482 31.8704 22.4636 33.3597 22.4636 34.8737C22.4636 36.3877 22.8482 37.877 23.5812 39.2021C24.7815 41.3364 26.7675 42.919 29.1173 43.6135C31.467 44.3081 33.9953 44.0599 36.1648 42.9217C37.2459 42.3622 38.2037 41.5917 38.9814 40.6557C39.7591 39.7198 40.3408 38.6374 40.6922 37.4728C41.0395 36.3323 41.1541 35.1337 41.0291 33.9482C40.9042 32.7626 40.5423 31.6141 39.965 30.5708C38.5258 27.9461 35.9241 26.2987 32.4363 25.8075C32.1649 25.7205 30.5363 25.1526 29.7936 23.8019C29.5498 23.361 29.3969 22.8758 29.3442 22.3748C29.2914 21.8739 29.3397 21.3675 29.4863 20.8856C29.6341 20.3902 29.8797 19.9294 30.2087 19.5304C30.5377 19.1314 30.9434 18.8024 31.4018 18.5627ZM28.0062 20.4353C27.8006 21.1117 27.7327 21.8224 27.8066 22.5254C27.8805 23.2284 28.0946 23.9095 28.4364 24.5284C29.5632 26.575 31.9549 27.2605 32.0574 27.2912H32.1547C34.2545 27.5778 37.0816 28.4987 38.6026 31.2769C39.0818 32.1422 39.3822 33.0948 39.486 34.0783C39.5898 35.0617 39.4949 36.056 39.207 37.0021C38.9141 37.9711 38.4296 38.8717 37.7821 39.6503C37.1347 40.4289 36.3374 41.0699 35.4376 41.5352C33.6249 42.491 31.5102 42.7018 29.5442 42.1227C27.5782 41.5435 25.9163 40.2202 24.9128 38.4347C24.308 37.3377 23.9909 36.1056 23.9909 34.8532C23.9909 33.6008 24.308 32.3688 24.9128 31.2718C25.2803 30.5097 25.4578 29.6701 25.4302 28.8246C25.4025 27.9791 25.1706 27.1529 24.7541 26.4163C24.0441 25.1516 22.8682 24.2136 21.4765 23.8017C20.0848 23.3899 18.5872 23.5368 17.3023 24.2112C16.3541 24.7759 15.5647 25.5716 15.0078 26.5238C14.4535 27.1874 13.7521 27.7129 12.9592 28.0587C11.1521 29.0087 9.04593 29.2191 7.08637 28.6451C5.12681 28.0712 3.46767 26.7581 2.46011 24.9838C1.98165 24.1191 1.68164 23.1674 1.57784 22.1849C1.47404 21.2024 1.56854 20.209 1.85577 19.2637C2.14864 18.2946 2.63314 17.3941 3.28061 16.6155C3.92808 15.8368 4.72534 15.1959 5.62521 14.7306C7.43576 13.7791 9.54629 13.5701 11.5086 14.1481C13.4709 14.726 15.1303 16.0454 16.1346 17.826C16.1704 17.8925 16.2421 18.005 16.2472 18.0102C16.9815 19.2188 18.1505 20.1014 19.5149 20.4771C20.8793 20.8528 22.3359 20.6932 23.5864 20.0311C24.8363 19.3934 25.7844 18.2894 26.2253 16.9583C26.6663 15.6272 26.5646 14.1761 25.9423 12.9194C25.9423 12.9194 25.8757 12.771 25.8347 12.6994C25.3556 11.8341 25.0552 10.8814 24.9514 9.89799C24.8476 8.91455 24.9424 7.9203 25.2304 6.97416C25.5232 6.00512 26.0077 5.10462 26.6552 4.32598C27.3027 3.54734 28.0999 2.90638 28.9998 2.44107C30.814 1.48047 32.9324 1.26706 34.9021 1.84646C36.8717 2.42586 38.5363 3.75209 39.5399 5.54158C40.019 6.40691 40.3194 7.35952 40.4232 8.34296C40.527 9.32641 40.4322 10.3207 40.1442 11.2668C39.8514 12.2358 39.3669 13.1363 38.7194 13.915C38.0719 14.6936 37.2747 15.3346 36.3748 15.7999C35.6291 16.2632 34.7857 16.547 33.9113 16.6287C32.8034 16.56 31.6955 16.7638 30.6848 17.2222C30.0465 17.5525 29.4807 18.0068 29.0208 18.5586C28.5608 19.1104 28.2158 19.7485 28.0062 20.4353Z" fill="black"/>
</svg>
