<svg width="50" height="54" viewBox="0 0 50 54" fill="none" xmlns="http://www.w3.org/2000/svg">
<path d="M11.5172 33.5984C11.5172 34.0542 11.8866 34.4242 12.343 34.4242C12.7993 34.4242 13.1687 34.0542 13.1687 33.5984C13.1687 30.8189 10.6524 28.5222 7.41205 28.1836V25.8742C7.41205 25.4178 7.04266 25.0484 6.58629 25.0484C6.12992 25.0484 5.76053 25.4178 5.76053 25.8742V28.1836C2.51803 28.5222 0 30.8189 0 33.5984C0 36.3757 2.51803 38.6708 5.76053 39.0088V46.6196C3.43242 46.3157 1.65153 44.7501 1.65153 42.8646C1.65153 42.4087 1.28214 42.0388 0.825764 42.0388C0.369392 42.0388 0 42.4087 0 42.8646C0 45.6457 2.51803 47.9441 5.76053 48.2816V50.5877C5.76053 51.0435 6.12992 51.4134 6.58629 51.4134C7.04266 51.4134 7.41205 51.0435 7.41205 50.5877V48.2805C10.6524 47.9403 13.1687 45.6435 13.1687 42.8646C13.1687 40.0873 10.6529 37.7927 7.41205 37.4531V29.845C9.73851 30.15 11.5172 31.7146 11.5172 33.5984ZM1.65153 33.5984C1.65153 31.7146 3.43187 30.15 5.76053 29.845V37.3468C3.43187 37.0424 1.65153 35.4795 1.65153 33.5984ZM11.5172 42.864C11.5172 44.7479 9.73851 46.3124 7.41205 46.6185V39.1145C9.73851 39.42 11.5172 40.9829 11.5172 42.864Z" fill="black"/>
<path d="M47.205 32.0114C46.7492 32.0114 46.3793 32.3813 46.3793 32.8371V46.7689H24.9265L28.6199 43.0749C28.9425 42.7523 28.9425 42.2299 28.6199 41.9073C28.2973 41.5847 27.7748 41.5847 27.4522 41.9073L22.3496 47.0105C22.273 47.087 22.2119 47.179 22.1695 47.2814C22.1679 47.2852 22.1673 47.2896 22.1657 47.294C22.1288 47.3876 22.1068 47.4889 22.1068 47.5952C22.1068 47.7014 22.1288 47.8027 22.1657 47.8963C22.1673 47.9007 22.1679 47.9045 22.1695 47.909C22.2114 48.0108 22.2725 48.1027 22.3496 48.1798L27.4522 53.2836C27.6135 53.4449 27.8249 53.5252 28.0363 53.5252C28.2477 53.5252 28.4591 53.4449 28.6204 53.2836C28.943 52.961 28.943 52.4385 28.6204 52.1159L24.927 48.4215H47.2056C47.6614 48.4215 48.0314 48.0515 48.0314 47.5957V32.8371C48.0308 32.3813 47.6609 32.0114 47.205 32.0114Z" fill="black"/>
<path d="M6.58626 16.5029C7.04263 16.5029 7.41202 16.1335 7.41202 15.6771V6.75612H26.8549L23.161 10.45C22.8384 10.7726 22.8384 11.2956 23.161 11.6177C23.3223 11.779 23.5337 11.8593 23.7451 11.8593C23.9565 11.8593 24.1679 11.779 24.3292 11.6177L29.4318 6.51445C29.5089 6.43793 29.57 6.34599 29.6118 6.2436C29.6135 6.23974 29.6141 6.23534 29.6157 6.23094C29.6526 6.13735 29.6746 6.03606 29.6746 5.92981C29.6746 5.82356 29.6526 5.72227 29.6157 5.62868C29.6141 5.62483 29.6135 5.62042 29.6118 5.61602C29.57 5.51417 29.5089 5.42224 29.4318 5.34517L24.3292 0.241949C24.0066 -0.0806496 23.4841 -0.0806496 23.1615 0.241949C22.8389 0.563996 22.8389 1.08698 23.1615 1.40958L26.8555 5.10349H6.58626C6.12989 5.10349 5.7605 5.47289 5.7605 5.92926V15.676C5.7605 16.1329 6.12989 16.5029 6.58626 16.5029Z" fill="black"/>
<path d="M49.8453 21.2399C49.5799 20.8694 49.063 20.7852 48.6925 21.0505C47.3955 21.982 45.8431 22.4742 44.2042 22.4742C41.1891 22.4742 38.594 20.7709 37.444 18.3382H45.3372C45.793 18.3382 46.1629 17.9688 46.1629 17.5124C46.1629 17.056 45.793 16.6867 45.3372 16.6867H36.9199C36.8533 16.3129 36.8103 15.9319 36.8103 15.5405C36.8103 15.1491 36.8533 14.7681 36.9199 14.3943H45.3377C45.7935 14.3943 46.1635 14.0249 46.1635 13.5686C46.1635 13.1122 45.7935 12.7428 45.3377 12.7428H37.444C38.5934 10.3101 41.1885 8.60683 44.2042 8.60683C45.7776 8.60683 47.2799 9.06431 48.5477 9.92861C48.9248 10.1851 49.4384 10.0888 49.6955 9.71171C49.9526 9.33461 49.8552 8.82098 49.4786 8.56444C47.935 7.51187 46.1112 6.95531 44.2042 6.95531C40.2494 6.95531 36.8879 9.3803 35.6614 12.7428H32.5984C32.1426 12.7428 31.7726 13.1122 31.7726 13.5686C31.7726 14.0249 32.1426 14.3943 32.5984 14.3943H35.2485C35.1951 14.7703 35.1582 15.1507 35.1582 15.5405C35.1582 15.9303 35.1951 16.3107 35.2485 16.6867H32.5984C32.1426 16.6867 31.7726 17.056 31.7726 17.5124C31.7726 17.9688 32.1426 18.3382 32.5984 18.3382H35.6614C36.8879 21.7007 40.2494 24.1257 44.2042 24.1257C46.1904 24.1257 48.0759 23.5262 49.6559 22.3927C50.0264 22.1262 50.1106 21.6104 49.8453 21.2399Z" fill="black"/>
</svg>
