<svg width="45" height="46" viewBox="0 0 45 46" fill="none" xmlns="http://www.w3.org/2000/svg">
<path d="M43.4153 33.3819C42.2304 31.9317 40.5513 31.0294 38.6868 30.842C36.8254 30.6531 34.9944 31.2051 33.5431 32.3925C33.1203 32.7383 32.7502 33.1303 32.4246 33.5526L29.9327 31.2537C29.634 30.9777 29.1691 30.9969 28.8926 31.2957C28.6172 31.5945 28.6359 32.0598 28.9347 32.3358L31.6427 34.8342C31.3075 35.5467 31.0857 36.3148 31.0047 37.1215C30.8184 38.9854 31.3683 40.8099 32.5542 42.2601C33.7401 43.7108 35.4197 44.6127 37.2847 44.8C37.5232 44.8238 37.7602 44.8355 37.9971 44.8355C39.6094 44.8355 41.1594 44.2846 42.4238 43.25C43.8746 42.0641 44.7769 40.385 44.9643 38.5211C45.1511 36.6571 44.6007 34.8327 43.4153 33.3819ZM43.4998 38.3737C43.352 39.8462 42.639 41.1734 41.4921 42.1107C40.3457 43.049 38.903 43.4825 37.4305 43.3356C35.9575 43.1878 34.6303 42.4753 33.693 41.3284C32.7557 40.1825 32.3213 38.7408 32.4691 37.2678C32.6165 35.7953 33.3284 34.4686 34.4743 33.5318C35.4744 32.7135 36.6998 32.2776 37.9749 32.2776C38.1622 32.2776 38.3506 32.2872 38.5395 32.3059C40.0125 32.4543 41.3392 33.1667 42.2749 34.3132L42.2754 34.3137C43.2127 35.4596 43.6477 36.9017 43.4998 38.3737Z" fill="black"/>
<path d="M26.0292 19.0476C26.0292 19.4542 26.3583 19.7833 26.7649 19.7833C27.1715 19.7833 27.5007 19.4542 27.5007 19.0476C27.5007 16.7857 25.4721 14.9146 22.8492 14.6148V11.0374C22.8492 10.6307 22.52 10.3016 22.1134 10.3016C21.7068 10.3016 21.3777 10.6307 21.3777 11.0374V14.6154C18.7547 14.9156 16.7256 16.7862 16.7256 19.0481C16.7256 21.309 18.7547 23.1791 21.3777 23.4788V29.4894C19.5694 29.2246 18.1977 28.0012 18.1977 26.5348C18.1977 26.1281 17.8685 25.799 17.4619 25.799C17.0553 25.799 16.7262 26.1281 16.7262 26.5348C16.7262 28.7982 18.7552 30.6703 21.3782 30.9695V34.5445C21.3782 34.9511 21.7073 35.2802 22.1139 35.2802C22.5205 35.2802 22.8497 34.9511 22.8497 34.5445V30.969C25.4721 30.6682 27.5007 28.7972 27.5007 26.5348C27.5007 24.2733 25.4727 22.4023 22.8497 22.1015V16.095C24.6574 16.3603 26.0292 17.5822 26.0292 19.0476ZM18.1977 19.0476C18.1977 17.5827 19.5694 16.3603 21.3777 16.095V21.9987C19.5694 21.7334 18.1977 20.512 18.1977 19.0476ZM26.0286 26.5342C26.0286 27.9997 24.6574 29.2221 22.8497 29.4884V23.5806C24.6574 23.847 26.0286 25.0693 26.0286 26.5342Z" fill="black"/>
<path d="M6.31469 14.301C6.55318 14.3248 6.79067 14.3369 7.02765 14.3369C8.64043 14.3369 10.1904 13.786 11.4553 12.752C11.6538 12.5894 11.8397 12.4163 12.0174 12.236L14.8151 14.8164C14.9564 14.9471 15.1356 15.0114 15.3139 15.0114C15.5124 15.0114 15.7098 14.9319 15.8547 14.7744C16.1301 14.4757 16.1114 14.0103 15.8126 13.7348L12.9344 11.0794C13.5147 10.167 13.8834 9.12841 13.9943 8.02149C14.1811 6.15805 13.6312 4.3331 12.4453 2.88337C11.2599 1.43161 9.57975 0.529266 7.71429 0.342417C5.84731 0.154554 4.02388 0.705989 2.57414 1.89241C-0.419505 4.33969 -0.863084 8.76686 1.58419 11.7615C2.77011 13.2118 4.44973 14.1141 6.31469 14.301ZM3.50535 3.03174C4.50493 2.21446 5.73034 1.77898 7.00487 1.77898C7.19172 1.77898 7.37907 1.7886 7.56744 1.80734C9.04148 1.9552 10.3692 2.66766 11.3055 3.81458L11.306 3.81509C12.2432 4.961 12.6777 6.40263 12.5298 7.87515C12.382 9.34767 11.6695 10.6749 10.5231 11.6121C9.3772 12.5494 7.93405 12.9834 6.46103 12.8365C4.98749 12.6887 3.6603 11.9762 2.72302 10.8303C0.789703 8.46355 1.14011 4.96556 3.50535 3.03174Z" fill="black"/>
<path d="M31.9197 12.197C33.0261 13.2077 34.4166 13.8412 35.9347 13.9936C36.1737 14.0174 36.4112 14.0295 36.6482 14.0295C38.2605 14.0295 39.8094 13.4786 41.0738 12.4446C42.5251 11.2582 43.4269 9.57857 43.6148 7.71463C43.8017 5.8517 43.2512 4.02675 42.0658 2.57651C40.8809 1.12577 39.2023 0.223926 37.3379 0.0360637C35.4724 -0.151799 33.6459 0.398623 32.1937 1.58606C30.7439 2.77096 29.8421 4.45007 29.6552 6.31402C29.4831 8.02959 29.9429 9.70921 30.9409 11.0972L28.1706 13.6523C27.8718 13.9278 27.8531 14.3931 28.1285 14.6919C28.2739 14.8494 28.4714 14.9289 28.6693 14.9289C28.8481 14.9289 29.0268 14.8645 29.1681 14.7339L31.9197 12.197ZM31.1197 6.46086C31.2675 4.98834 31.9795 3.66166 33.1254 2.72539C34.1255 1.90709 35.3514 1.47162 36.6259 1.47162C36.8133 1.47162 37.0016 1.48124 37.191 1.49997C38.6635 1.64783 39.9897 2.3608 40.9255 3.50671L40.926 3.50722C41.8633 4.65313 42.2977 6.09526 42.1504 7.56778C42.0025 9.0403 41.2896 10.3675 40.1421 11.3053C38.9967 12.2426 37.5591 12.6791 36.0811 12.5292C34.608 12.3813 33.2808 11.6684 32.3436 10.5219C31.4073 9.37602 30.9723 7.93389 31.1197 6.46086Z" fill="black"/>
<path d="M15.0344 31.0157L12.2347 33.5992C11.0655 32.2892 9.47698 31.4699 7.71786 31.2927C5.8524 31.1043 4.02542 31.6557 2.57417 32.8427C1.12393 34.0276 0.222092 35.7067 0.0357482 37.5711C-0.151102 39.4351 0.398814 41.26 1.58473 42.7103C2.77064 44.161 4.45027 45.0629 6.31522 45.2502C6.55372 45.274 6.79121 45.2857 7.02768 45.2857C8.64046 45.2857 10.191 44.7342 11.4554 43.6997C12.9061 42.5143 13.808 40.8352 13.9948 38.9712C14.1422 37.5002 13.8242 36.0566 13.1031 34.7993L16.0324 32.0958C16.3312 31.8203 16.3499 31.355 16.0745 31.0562C15.799 30.7574 15.3331 30.7402 15.0344 31.0157ZM12.5304 38.8249C12.3825 40.2974 11.6701 41.6241 10.5236 42.5609C9.37723 43.4992 7.93459 43.9326 6.46156 43.7863C4.98854 43.6384 3.66084 42.926 2.72406 41.7791C1.78728 40.6331 1.35281 39.191 1.50016 37.7175C1.64802 36.245 2.35998 34.9183 3.50589 33.982C4.50546 33.1642 5.73087 32.7282 7.0054 32.7282C7.19326 32.7282 7.38163 32.7378 7.57051 32.7571C9.04353 32.9049 10.3702 33.6179 11.306 34.7643L11.3065 34.7648C12.2433 35.9108 12.6782 37.3524 12.5304 38.8249Z" fill="black"/>
</svg>
