<svg width="31" height="30" viewBox="0 0 31 30" fill="none" xmlns="http://www.w3.org/2000/svg">
<g clip-path="url(#clip0_194_3706)">
<path fill-rule="evenodd" clip-rule="evenodd" d="M15.6563 30C23.9405 30 30.6563 23.2843 30.6563 15C30.6563 6.71574 23.9405 0 15.6563 0C7.37199 0 0.65625 6.71574 0.65625 15C0.65625 23.2843 7.37199 30 15.6563 30ZM16.717 6.90501C15.8521 6.92913 14.9394 7.13733 14.2948 7.74984C13.7624 8.24232 13.4941 8.95908 13.4339 9.67557C13.4155 10.1881 13.4181 10.7019 13.4207 11.2155C13.4227 11.6006 13.4247 11.9857 13.4178 12.37C13.181 12.3718 12.9435 12.3713 12.7059 12.3708C12.389 12.3701 12.072 12.3695 11.7563 12.374C11.7563 12.6807 11.7567 12.9878 11.7571 13.2952C11.758 13.9109 11.7589 14.5277 11.7563 15.1446C12.072 15.1492 12.389 15.1485 12.7059 15.1479C12.9435 15.1474 13.181 15.1469 13.4178 15.1486C13.4231 16.3712 13.4222 17.5936 13.4212 18.8161C13.4199 20.3442 13.4187 21.8722 13.4298 23.4002C14.0796 23.3957 14.7279 23.3963 15.3765 23.397C15.863 23.3975 16.3496 23.398 16.837 23.3962C16.841 22.0209 16.84 20.6467 16.839 19.2724C16.838 17.8982 16.837 16.5239 16.841 15.1486C17.1688 15.1469 17.4965 15.1474 17.8242 15.1479C18.2612 15.1485 18.6982 15.1492 19.1352 15.1446C19.2713 14.2237 19.3873 13.2947 19.4514 12.362C19.019 12.36 18.5866 12.36 18.1542 12.36C17.7218 12.36 17.2894 12.36 16.8571 12.358C16.8571 12.1968 16.8569 12.0356 16.8566 11.8745C16.8559 11.391 16.8551 10.9077 16.8611 10.4242C16.9292 10.0518 17.3134 9.76749 17.6859 9.79161H19.4554C19.4594 8.82672 19.4594 7.86588 19.4554 6.90099C19.2272 6.90099 18.9991 6.90075 18.7709 6.90051C18.0863 6.89976 17.4017 6.89901 16.717 6.90501Z" fill="#1E1E1E"/>
</g>
<defs>
<clipPath id="clip0_194_3706">
<rect width="30" height="30" fill="white" transform="translate(0.65625)"/>
</clipPath>
</defs>
</svg>
