<svg width="31" height="30" viewBox="0 0 31 30" fill="none" xmlns="http://www.w3.org/2000/svg">
<path fill-rule="evenodd" clip-rule="evenodd" d="M15.6563 30C23.9405 30 30.6563 23.2843 30.6563 15C30.6563 6.71574 23.9405 0 15.6563 0C7.37199 0 0.65625 6.71574 0.65625 15C0.65625 23.2843 7.37199 30 15.6563 30ZM22.2494 9.58332C22.365 8.26929 20.9774 8.81034 20.9774 8.81034C19.9529 9.23448 18.8962 9.66549 17.8282 10.1012C14.5165 11.452 11.0951 12.8476 8.18058 14.2211C6.60024 14.8008 7.52532 15.3806 7.52532 15.3806L10.0307 16.1535C11.1871 16.5013 11.8038 16.1149 11.8038 16.1149L17.2001 12.4433C19.1273 11.1293 18.6648 12.2114 18.2022 12.6752L14.155 16.54C13.5383 17.081 13.8467 17.5448 14.1165 17.7767C14.8811 18.4514 16.7622 19.6859 17.5835 20.2248C17.7972 20.365 17.9391 20.4581 17.9709 20.4821C18.1637 20.6367 19.2044 21.3323 19.8982 21.1777C20.592 21.0232 20.6691 20.1343 20.6691 20.1343L21.5942 14.0665C21.7329 13.0131 21.8921 12.0006 22.0192 11.1919C22.1392 10.4281 22.2307 9.84615 22.2494 9.58332Z" fill="#1E1E1E"/>
</svg>
