<svg width="31" height="30" viewBox="0 0 31 30" fill="none" xmlns="http://www.w3.org/2000/svg">
<path fill-rule="evenodd" clip-rule="evenodd" d="M15.6563 30C23.9405 30 30.6563 23.2843 30.6563 15C30.6563 6.71574 23.9405 0 15.6563 0C7.37199 0 0.65625 6.71574 0.65625 15C0.65625 23.2843 7.37199 30 15.6563 30ZM21.585 8.69784C20.0414 7.1523 17.9884 6.30081 15.8012 6.3C11.2947 6.3 7.62663 9.96756 7.62501 14.4757C7.62447 15.9167 8.00094 17.3234 8.71629 18.5631L7.55625 22.8L11.8906 21.6632C13.0847 22.3147 14.4295 22.6579 15.7977 22.6584H15.8009C20.3071 22.6584 23.9752 18.9903 23.9771 14.4825C23.9785 12.2975 23.1289 10.2434 21.585 8.69784ZM15.8015 21.2774H15.7987C14.5792 21.2768 13.3832 20.9492 12.3399 20.3301L12.0917 20.1828L9.51948 20.8575L10.2059 18.3497L10.0444 18.0925C9.36423 17.0105 9.00492 15.7601 9.00549 14.4759C9.00684 10.729 12.0556 7.68075 15.8039 7.68075C17.619 7.68129 19.3253 8.38926 20.6083 9.67371C21.8914 10.9582 22.5975 12.6655 22.5969 14.4814C22.5956 18.2289 19.547 21.2774 15.8015 21.2774ZM19.5288 16.1876C19.3245 16.0853 18.3202 15.5912 18.1328 15.5231C17.9456 15.4548 17.8092 15.4207 17.6731 15.6253C17.537 15.83 17.1455 16.2899 17.0262 16.4264C16.907 16.5628 16.7878 16.5797 16.5837 16.4774C16.5503 16.4606 16.5047 16.4409 16.4485 16.4165C16.1608 16.2917 15.5934 16.0457 14.9408 15.4633C14.3335 14.9215 13.9234 14.2525 13.8042 14.0482C13.685 13.8436 13.7914 13.7331 13.8937 13.6313C13.955 13.5701 14.0254 13.4843 14.0959 13.3986C14.131 13.3558 14.1661 13.313 14.2001 13.2734C14.2866 13.1723 14.3243 13.0955 14.3753 12.9915C14.3845 12.9728 14.394 12.9533 14.4044 12.9326C14.4726 12.7962 14.4385 12.677 14.3875 12.5747C14.3534 12.5063 14.1598 12.035 13.9842 11.6077C13.8969 11.3952 13.8141 11.1936 13.7576 11.0578C13.6111 10.7061 13.4627 10.707 13.3436 10.7077C13.3278 10.7078 13.3125 10.7079 13.2978 10.7072C13.1789 10.7012 13.0425 10.7001 12.9063 10.7001C12.7702 10.7001 12.5489 10.7511 12.3615 10.9557C12.3494 10.9689 12.3359 10.9833 12.3213 10.999C12.1084 11.2263 11.6465 11.7194 11.6465 12.6601C11.6465 13.6632 12.3749 14.6324 12.48 14.7723L12.4808 14.7733C12.4874 14.7822 12.4993 14.7993 12.5162 14.8236C12.7601 15.1735 14.0547 17.0307 15.9707 17.8581C16.4582 18.0687 16.8385 18.1943 17.1353 18.2884C17.6248 18.4439 18.0701 18.422 18.4223 18.3694C18.8148 18.3107 19.6309 17.8753 19.8011 17.3981C19.9713 16.921 19.9713 16.5118 19.9203 16.4266C19.8792 16.3577 19.7826 16.311 19.6395 16.2418C19.6052 16.2253 19.5683 16.2074 19.5288 16.1876Z" fill="#1E1E1E"/>
</svg>
