<svg width="31" height="30" viewBox="0 0 31 30" fill="none" xmlns="http://www.w3.org/2000/svg">
<g clip-path="url(#clip0_194_3772)">
<path fill-rule="evenodd" clip-rule="evenodd" d="M15.6563 30C23.9405 30 30.6563 23.2843 30.6563 15C30.6563 6.71574 23.9405 0 15.6563 0C7.37199 0 0.65625 6.71574 0.65625 15C0.65625 23.2843 7.37199 30 15.6563 30ZM21.026 9.78768C22.1776 9.89172 22.8263 10.5962 22.9686 11.7192C23.0681 12.5027 23.1562 13.6249 23.1562 14.8316C23.1562 16.9508 22.9686 18.176 22.9686 18.176C22.7919 19.2945 22.2512 19.9018 21.1142 20.0304C19.8438 20.174 16.9866 20.2401 15.717 20.2401C14.4031 20.2401 11.7456 20.185 10.419 20.0745C9.27876 19.9796 8.50068 19.3426 8.34393 18.2091C8.22993 17.3836 8.15625 16.4026 8.15625 14.8426C8.15625 13.106 8.21889 12.3712 8.36598 11.5867C8.57595 10.4671 9.11019 9.92478 10.3306 9.79869C11.6112 9.66615 12.8213 9.6 15.5294 9.6C16.8533 9.6 19.7075 9.66855 21.026 9.78768ZM14.0613 12.7162V17.0282L18.1672 14.8501L14.0613 12.7162Z" fill="#1E1E1E"/>
</g>
<defs>
<clipPath id="clip0_194_3772">
<rect width="30" height="30" fill="white" transform="translate(0.65625)"/>
</clipPath>
</defs>
</svg>
