<svg width="51" height="51" viewBox="0 0 51 51" fill="none" xmlns="http://www.w3.org/2000/svg">
<path d="M17.7935 29.9147V26.1704C20.5525 25.8461 22.6837 23.8738 22.6837 21.4892C22.6837 19.1069 20.5525 17.1356 17.7935 16.8114V10.5335C19.6741 10.8179 21.0973 12.0926 21.0973 13.6184C21.0973 14.0567 21.4521 14.4116 21.8905 14.4116C22.3288 14.4116 22.6837 14.0567 22.6837 13.6184C22.6837 11.2339 20.5519 9.26095 17.7935 8.93832V5.19286C17.7935 4.7545 17.4386 4.39966 17.0003 4.39966C16.5619 4.39966 16.2071 4.7545 16.2071 5.19286V8.93886C13.4459 9.26149 11.3119 11.2344 11.3119 13.6195C11.3119 16.0018 13.4459 17.9725 16.2071 18.2951V24.5769C14.3242 24.2936 12.8983 23.0178 12.8983 21.4898C12.8983 21.0514 12.5435 20.6966 12.1051 20.6966C11.6668 20.6966 11.3119 21.0514 11.3119 21.4898C11.3119 23.8765 13.4459 25.8505 16.2071 26.172V29.9153C16.2071 30.3537 16.5619 30.7085 17.0003 30.7085C17.4386 30.7085 17.7935 30.3531 17.7935 29.9147ZM21.0973 21.4892C21.0973 23.015 19.6746 24.2897 17.7935 24.5752V18.4065C19.6746 18.692 21.0973 19.9651 21.0973 21.4892ZM12.8983 13.6189C12.8983 12.0926 14.3237 10.8179 16.2071 10.534V16.6995C14.3237 16.4156 12.8983 15.1431 12.8983 13.6189Z" fill="url(#paint0_linear_325_3666)"/>
<path d="M33.7639 17.5527C33.7639 8.3072 26.2419 0.786255 16.9959 0.786255C7.74988 0.786255 0.227844 8.3072 0.227844 17.5527C0.227844 26.7981 7.74988 34.3202 16.9959 34.3202C26.2419 34.3202 33.7639 26.7981 33.7639 17.5527ZM1.81425 17.5527C1.81425 9.18229 8.62442 2.37266 16.9959 2.37266C25.3673 2.37266 32.1775 9.18229 32.1775 17.5527C32.1775 25.9236 25.3673 32.7338 16.9959 32.7338C8.62442 32.7338 1.81425 25.9241 1.81425 17.5527Z" fill="url(#paint1_linear_325_3666)"/>
<path d="M50.3376 32.8511L48.6731 26.3673C48.5651 25.9443 48.1316 25.6893 47.7102 25.7958L41.2712 27.4264C40.8465 27.5334 40.5894 27.9652 40.6969 28.3899C40.8039 28.8146 41.2374 29.0712 41.6604 28.9642L46.2641 27.7987L37.8915 40.8262L32.4876 32.9482C32.3331 32.7233 32.0847 32.6103 31.7987 32.6043C31.5252 32.6163 31.2773 32.7686 31.1425 33.0067L23.877 45.8698L16.2005 40.253C15.873 40.0133 15.4155 40.0598 15.1425 40.3627L7.16139 49.2359C6.86824 49.5618 6.89499 50.0635 7.22089 50.3561C7.37266 50.4926 7.56209 50.5597 7.75097 50.5597C7.96824 50.5597 8.18442 50.4713 8.34109 50.2971L15.8424 41.9573L23.6603 47.6779C23.8432 47.8116 24.0757 47.8618 24.2957 47.8127C24.5174 47.7652 24.7079 47.6249 24.8193 47.4278L31.8986 34.896L37.2588 42.7096C37.4089 42.9285 37.6546 43.059 37.9248 43.054C38.1907 43.0497 38.4369 42.9132 38.5804 42.6894L47.6163 28.6301L48.8014 33.2463C48.8931 33.6044 49.2158 33.8424 49.569 33.8424C49.6339 33.8424 49.7005 33.8342 49.7666 33.8173C50.1908 33.7076 50.4468 33.2752 50.3376 32.8511Z" fill="url(#paint2_linear_325_3666)"/>
<defs>
<linearGradient id="paint0_linear_325_3666" x1="16.9978" y1="4.39966" x2="16.9978" y2="30.7085" gradientUnits="userSpaceOnUse">
<stop stop-color="#C3FFE7"/>
<stop offset="1" stop-color="#02834F"/>
</linearGradient>
<linearGradient id="paint1_linear_325_3666" x1="16.9959" y1="0.786255" x2="16.9959" y2="34.3202" gradientUnits="userSpaceOnUse">
<stop stop-color="#C3FFE7"/>
<stop offset="1" stop-color="#02834F"/>
</linearGradient>
<linearGradient id="paint2_linear_325_3666" x1="28.6603" y1="25.7716" x2="28.6603" y2="50.5597" gradientUnits="userSpaceOnUse">
<stop stop-color="#C3FFE7"/>
<stop offset="1" stop-color="#02834F"/>
</linearGradient>
</defs>
</svg>
