<svg width="55" height="56" viewBox="0 0 55 56" fill="none" xmlns="http://www.w3.org/2000/svg">
<path d="M27.5 38.3326C24.5106 38.3356 21.6445 39.5244 19.5306 41.6382C17.4168 43.7521 16.2279 46.6182 16.225 49.6076C16.225 49.8264 16.312 50.0363 16.4667 50.191C16.6214 50.3457 16.8312 50.4326 17.05 50.4326H37.95C38.1688 50.4326 38.3787 50.3457 38.5334 50.191C38.6881 50.0363 38.775 49.8264 38.775 49.6076C38.7721 46.6182 37.5833 43.7521 35.4694 41.6382C33.3556 39.5244 30.4895 38.3356 27.5 38.3326ZM17.908 48.7826C18.1155 46.3824 19.2156 44.1472 20.991 42.5186C22.7664 40.89 25.0881 39.9864 27.4973 39.9864C29.9065 39.9864 32.2282 40.89 34.0036 42.5186C35.779 44.1472 36.8791 46.3824 37.0865 48.7826H17.908Z" fill="url(#paint0_linear_157_4154)"/>
<path d="M27.5 36.6827C28.6422 36.6827 29.7588 36.344 30.7085 35.7094C31.6581 35.0749 32.3983 34.1729 32.8354 33.1177C33.2725 32.0624 33.3869 30.9013 33.1641 29.781C32.9412 28.6608 32.3912 27.6318 31.5836 26.8242C30.7759 26.0165 29.7469 25.4665 28.6267 25.2437C27.5064 25.0208 26.3453 25.1352 25.29 25.5723C24.2348 26.0094 23.3329 26.7496 22.6983 27.6993C22.0637 28.649 21.725 29.7655 21.725 30.9077C21.7265 32.4389 22.3354 33.9069 23.4181 34.9896C24.5008 36.0723 25.9689 36.6812 27.5 36.6827ZM27.5 26.7827C28.3159 26.7827 29.1134 27.0246 29.7918 27.4779C30.4701 27.9311 30.9988 28.5754 31.311 29.3291C31.6233 30.0829 31.7049 30.9123 31.5458 31.7124C31.3866 32.5126 30.9937 33.2476 30.4169 33.8245C29.84 34.4014 29.105 34.7943 28.3048 34.9534C27.5046 35.1126 26.6752 35.0309 25.9215 34.7187C25.1677 34.4065 24.5235 33.8778 24.0702 33.1994C23.617 32.5211 23.375 31.7235 23.375 30.9077C23.3765 29.8141 23.8116 28.7658 24.5848 27.9925C25.3581 27.2192 26.4065 26.7841 27.5 26.7827Z" fill="url(#paint1_linear_157_4154)"/>
<path d="M40.315 28.9827C38.8322 28.9732 37.3619 29.2534 35.9865 29.8077C35.8861 29.8485 35.7948 29.9086 35.7176 29.9848C35.6405 30.0609 35.5791 30.1515 35.537 30.2513C35.4948 30.3512 35.4728 30.4583 35.4721 30.5667C35.4713 30.6751 35.492 30.7825 35.5328 30.8829C35.5736 30.9833 35.6338 31.0747 35.7099 31.1518C35.786 31.2289 35.8766 31.2903 35.9764 31.3325C36.0763 31.3746 36.1835 31.3967 36.2918 31.3974C36.4002 31.3981 36.5076 31.3775 36.608 31.3367C37.786 30.8627 39.0453 30.6236 40.315 30.6327C45.265 30.6327 49.302 34.2627 49.7365 38.8827H36.6575C36.4387 38.8827 36.2289 38.9696 36.0742 39.1243C35.9195 39.279 35.8325 39.4889 35.8325 39.7077C35.8325 39.9265 35.9195 40.1363 36.0742 40.291C36.2289 40.4457 36.4387 40.5327 36.6575 40.5327H50.6C50.8188 40.5327 51.0287 40.4457 51.1834 40.291C51.3381 40.1363 51.425 39.9265 51.425 39.7077C51.425 33.7952 46.442 28.9827 40.315 28.9827Z" fill="url(#paint2_linear_157_4154)"/>
<path d="M40.15 26.7827C41.2922 26.7827 42.4087 26.444 43.3584 25.8094C44.3081 25.1748 45.0483 24.2729 45.4854 23.2177C45.9225 22.1624 46.0369 21.0013 45.814 19.881C45.5912 18.7608 45.0412 17.7318 44.2335 16.9241C43.4259 16.1165 42.3969 15.5665 41.2766 15.3436C40.1564 15.1208 38.9952 15.2352 37.94 15.6723C36.8848 16.1094 35.9828 16.8496 35.3483 17.7993C34.7137 18.7489 34.375 19.8655 34.375 21.0077C34.3765 22.5388 34.9854 24.0069 36.0681 25.0896C37.1508 26.1723 38.6188 26.7812 40.15 26.7827ZM40.15 16.8827C40.9658 16.8827 41.7634 17.1246 42.4417 17.5779C43.1201 18.0311 43.6488 18.6754 43.961 19.4291C44.2732 20.1828 44.3549 21.0122 44.1957 21.8124C44.0366 22.6126 43.6437 23.3476 43.0668 23.9245C42.4899 24.5014 41.7549 24.8942 40.9547 25.0534C40.1546 25.2126 39.3252 25.1309 38.5714 24.8187C37.8177 24.5065 37.1734 23.9778 36.7202 23.2994C36.2669 22.621 36.025 21.8235 36.025 21.0077C36.0265 19.9141 36.4615 18.8657 37.2348 18.0925C38.0081 17.3192 39.0564 16.8841 40.15 16.8827Z" fill="url(#paint3_linear_157_4154)"/>
<path d="M18.9695 39.7077C18.9695 39.4899 18.8834 39.2809 18.7298 39.1263C18.5763 38.9717 18.3679 38.8842 18.15 38.8827H5.26351C5.69801 34.2627 9.76251 30.6327 14.6905 30.6327C15.9572 30.6292 17.2125 30.872 18.3865 31.3477C18.4876 31.3885 18.5958 31.409 18.7048 31.408C18.8139 31.407 18.9216 31.3846 19.022 31.3419C19.1224 31.2993 19.2133 31.2373 19.2897 31.1595C19.3661 31.0817 19.4265 30.9896 19.4673 30.8885C19.5081 30.7874 19.5286 30.6792 19.5276 30.5702C19.5266 30.4611 19.5041 30.3533 19.4615 30.253C19.4188 30.1526 19.3568 30.0617 19.279 29.9853C19.2012 29.9089 19.1091 29.8485 19.008 29.8077C17.6367 29.2516 16.1703 28.9677 14.6905 28.9717C8.56351 28.9827 3.57501 33.7952 3.57501 39.7077C3.57501 39.9265 3.66193 40.1364 3.81665 40.2911C3.97137 40.4458 4.18121 40.5327 4.40001 40.5327H18.15C18.3679 40.5313 18.5763 40.4437 18.7298 40.2891C18.8834 40.1346 18.9695 39.9256 18.9695 39.7077Z" fill="url(#paint4_linear_157_4154)"/>
<path d="M14.85 26.7827C15.9922 26.7827 17.1087 26.444 18.0584 25.8094C19.0081 25.1748 19.7483 24.2729 20.1854 23.2177C20.6225 22.1624 20.7369 21.0013 20.514 19.881C20.2912 18.7608 19.7412 17.7318 18.9336 16.9241C18.1259 16.1165 17.0969 15.5665 15.9767 15.3436C14.8564 15.1208 13.6953 15.2352 12.64 15.6723C11.5848 16.1094 10.6828 16.8496 10.0483 17.7993C9.41371 18.7489 9.07501 19.8655 9.07501 21.0077C9.07647 22.5388 9.68537 24.0069 10.7681 25.0896C11.8508 26.1723 13.3188 26.7812 14.85 26.7827ZM14.85 16.8827C15.6659 16.8827 16.4634 17.1246 17.1417 17.5779C17.8201 18.0311 18.3488 18.6754 18.661 19.4291C18.9732 20.1828 19.0549 21.0122 18.8958 21.8124C18.7366 22.6126 18.3437 23.3476 17.7668 23.9245C17.1899 24.5014 16.4549 24.8942 15.6548 25.0534C14.8546 25.2126 14.0252 25.1309 13.2714 24.8187C12.5177 24.5065 11.8735 23.9778 11.4202 23.2994C10.9669 22.621 10.725 21.8235 10.725 21.0077C10.7265 19.9141 11.1615 18.8657 11.9348 18.0925C12.7081 17.3192 13.7564 16.8841 14.85 16.8827Z" fill="url(#paint5_linear_157_4154)"/>
<path d="M24.475 13.7257C24.475 13.5069 24.3881 13.297 24.2334 13.1423C24.0787 12.9876 23.8688 12.9007 23.65 12.9007C23.4312 12.9007 23.2214 12.9876 23.0666 13.1423C22.9119 13.297 22.825 13.5069 22.825 13.7257C22.825 15.6892 24.475 17.3227 26.675 17.6582V18.8077C26.675 19.0265 26.7619 19.2363 26.9166 19.391C27.0714 19.5457 27.2812 19.6327 27.5 19.6327C27.7188 19.6327 27.9287 19.5457 28.0834 19.391C28.2381 19.2363 28.325 19.0265 28.325 18.8077V17.6637C30.525 17.3282 32.175 15.6947 32.175 13.7312C32.175 11.7677 30.525 10.1342 28.325 9.79867V5.12917C29.5955 5.40967 30.525 6.31167 30.525 7.38967C30.525 7.60847 30.6119 7.81831 30.7666 7.97303C30.9214 8.12775 31.1312 8.21467 31.35 8.21467C31.5688 8.21467 31.7787 8.12775 31.9334 7.97303C32.0881 7.81831 32.175 7.60847 32.175 7.38967C32.175 5.42617 30.525 3.79267 28.325 3.45717V2.30767C28.325 2.08886 28.2381 1.87902 28.0834 1.7243C27.9287 1.56959 27.7188 1.48267 27.5 1.48267C27.2812 1.48267 27.0714 1.56959 26.9166 1.7243C26.7619 1.87902 26.675 2.08886 26.675 2.30767V3.45167C24.475 3.78717 22.825 5.42067 22.825 7.38417C22.825 9.34767 24.475 10.9812 26.675 11.3112V15.9862C25.41 15.7057 24.475 14.8037 24.475 13.7257ZM30.525 13.7257C30.525 14.8257 29.5955 15.7057 28.325 15.9862V11.4707C29.5955 11.7512 30.525 12.6587 30.525 13.7257ZM24.475 7.38417C24.475 6.28417 25.4045 5.40417 26.675 5.12367V9.63367C25.4045 9.35867 24.475 8.45667 24.475 7.38417Z" fill="url(#paint6_linear_157_4154)"/>
<defs>
<linearGradient id="paint0_linear_157_4154" x1="27.5" y1="38.3326" x2="27.5" y2="50.4326" gradientUnits="userSpaceOnUse">
<stop stop-color="#51FAB6"/>
<stop offset="1" stop-color="#038450"/>
</linearGradient>
<linearGradient id="paint1_linear_157_4154" x1="27.5" y1="25.1327" x2="27.5" y2="36.6827" gradientUnits="userSpaceOnUse">
<stop stop-color="#51FAB6"/>
<stop offset="1" stop-color="#038450"/>
</linearGradient>
<linearGradient id="paint2_linear_157_4154" x1="43.4485" y1="28.9824" x2="43.4485" y2="40.5327" gradientUnits="userSpaceOnUse">
<stop stop-color="#51FAB6"/>
<stop offset="1" stop-color="#038450"/>
</linearGradient>
<linearGradient id="paint3_linear_157_4154" x1="40.15" y1="15.2327" x2="40.15" y2="26.7827" gradientUnits="userSpaceOnUse">
<stop stop-color="#51FAB6"/>
<stop offset="1" stop-color="#038450"/>
</linearGradient>
<linearGradient id="paint4_linear_157_4154" x1="11.5513" y1="28.9717" x2="11.5513" y2="40.5327" gradientUnits="userSpaceOnUse">
<stop stop-color="#51FAB6"/>
<stop offset="1" stop-color="#038450"/>
</linearGradient>
<linearGradient id="paint5_linear_157_4154" x1="14.85" y1="15.2327" x2="14.85" y2="26.7827" gradientUnits="userSpaceOnUse">
<stop stop-color="#51FAB6"/>
<stop offset="1" stop-color="#038450"/>
</linearGradient>
<linearGradient id="paint6_linear_157_4154" x1="27.5" y1="1.48267" x2="27.5" y2="19.6327" gradientUnits="userSpaceOnUse">
<stop stop-color="#51FAB6"/>
<stop offset="1" stop-color="#038450"/>
</linearGradient>
</defs>
</svg>
