<svg width="39" height="47" viewBox="0 0 39 47" fill="none" xmlns="http://www.w3.org/2000/svg">
<path d="M33.7346 2.1612C31.2984 0.413711 28.3416 -0.259823 25.4144 0.2679C22.485 0.794501 19.9316 2.45675 18.2243 4.94843C15.4303 9.02497 15.5553 14.448 18.4633 18.3709L11.7347 28.189L7.36443 25.0535C7.18576 24.9251 6.9638 24.8746 6.75005 24.9139C6.53466 24.9526 6.34393 25.0771 6.21897 25.2599L4.31664 28.0404C4.05631 28.4206 4.14619 28.945 4.51778 29.2114L8.88586 32.3469L7.90044 33.7842L3.53181 30.6487C3.16132 30.3829 2.64833 30.4737 2.3869 30.8545L0.480182 33.635C0.354675 33.8179 0.305897 34.0439 0.343166 34.2637C0.380982 34.4835 0.502653 34.6793 0.680774 34.8071L5.05105 37.9404L2.7711 41.2716C2.18905 42.1195 1.95448 43.1856 2.12712 44.1968C2.28222 45.1014 2.74917 45.8731 3.44138 46.3699C3.97519 46.7524 4.60273 46.9493 5.2637 46.9493C5.53773 46.9493 5.81724 46.9156 6.09785 46.8466C6.99723 46.6273 7.81768 46.0559 8.3493 45.2797L24.0454 22.3773C28.6365 23.8382 33.6606 22.1093 36.4563 18.0316C39.9809 12.8878 38.7598 5.76834 33.7346 2.1612ZM35.1108 17.0642C32.6187 20.6999 28.0479 22.1474 23.9927 20.5788C23.7872 20.4992 23.5592 20.5076 23.3592 20.6018C23.1608 20.6949 23.0068 20.8648 22.9317 21.074L7.00435 44.3129C6.69963 44.7576 6.23103 45.084 5.71804 45.2096C5.22424 45.3296 4.75016 45.2528 4.38515 44.9909C4.05302 44.7526 3.82612 44.3673 3.7472 43.9057C3.64855 43.3309 3.78337 42.7235 4.11769 42.2368L6.86953 38.2157C7.13041 37.8355 7.03998 37.3112 6.66839 37.0442L2.29866 33.911L3.26052 32.5084L7.62915 35.6439C7.80727 35.7717 8.02814 35.8216 8.24298 35.7841C8.45837 35.7454 8.6491 35.6209 8.7746 35.4386L10.7038 32.6239C10.9652 32.2437 10.8748 31.7187 10.5032 31.4524L6.13457 28.3169L7.09423 26.9148L11.464 30.0498C11.8366 30.3173 12.348 30.2247 12.6094 29.844L20.051 18.9855L20.0598 18.9771C20.3892 18.6709 20.4204 18.1527 20.1311 17.8073C17.3107 14.439 17.0811 9.54876 19.5715 5.91415C21.0261 3.79035 23.203 2.37375 25.6994 1.9251C28.1958 1.47701 30.7142 2.0496 32.7908 3.53911C37.074 6.61348 38.1142 12.6809 35.1108 17.0642Z" fill="url(#paint0_linear_157_4171)"/>
<defs>
<linearGradient id="paint0_linear_157_4171" x1="19.4008" y1="0.0926514" x2="19.4008" y2="46.9493" gradientUnits="userSpaceOnUse">
<stop stop-color="#54FFBA"/>
<stop offset="1" stop-color="#01814D"/>
</linearGradient>
</defs>
</svg>
