<svg width="60" height="60" viewBox="0 0 60 60" fill="none" xmlns="http://www.w3.org/2000/svg">
<rect x="2" y="2" width="56" height="56" rx="5" fill="url(#paint0_linear_157_3792)" stroke="#F5F5F5" stroke-width="4"/>
<path d="M43 25.1111V20.9206C42.9991 20.4115 42.8006 19.9235 42.4479 19.5636C42.0952 19.2036 41.6172 19.0009 41.1184 19H18.8816C18.3828 19.0009 17.9048 19.2036 17.5521 19.5636C17.1994 19.9235 17.0009 20.4115 17 20.9206V25.1111C17.0003 25.3731 17.0532 25.6323 17.1556 25.8726C17.258 26.1129 17.4076 26.3291 17.5953 26.5079C17.4076 26.6868 17.258 26.903 17.1556 27.1433C17.0532 27.3836 17.0003 27.6427 17 27.9048V32.0952C17.0003 32.3573 17.0532 32.6164 17.1556 32.8567C17.258 33.097 17.4076 33.3132 17.5953 33.4921C17.4076 33.6709 17.258 33.8871 17.1556 34.1274C17.0532 34.3677 17.0003 34.6269 17 34.8889V39.0794C17.0009 39.5885 17.1994 40.0765 17.5521 40.4364C17.9048 40.7964 18.3828 40.9991 18.8816 41H41.1184C41.6172 40.9991 42.0952 40.7964 42.4479 40.4364C42.8006 40.0765 42.9991 39.5885 43 39.0794V34.8889C42.9998 34.6269 42.9468 34.3677 42.8444 34.1274C42.742 33.8871 42.5924 33.6709 42.4047 33.4921C42.5924 33.3132 42.742 33.097 42.8444 32.8567C42.9468 32.6164 42.9998 32.3573 43 32.0952V27.9048C42.9998 27.6427 42.9468 27.3836 42.8444 27.1433C42.742 26.903 42.5924 26.6868 42.4047 26.5079C42.5924 26.3291 42.742 26.1129 42.8444 25.8726C42.9468 25.6323 42.9998 25.3731 43 25.1111ZM41.9737 34.8889V39.0794C41.9737 39.3109 41.8836 39.533 41.7232 39.6967C41.5628 39.8604 41.3453 39.9524 41.1184 39.9524H18.8816C18.6547 39.9524 18.4372 39.8604 18.2768 39.6967C18.1164 39.533 18.0263 39.3109 18.0263 39.0794V34.8889C18.0263 34.6574 18.1164 34.4353 18.2768 34.2716C18.4372 34.1079 18.6547 34.0159 18.8816 34.0159H41.1184C41.3453 34.0159 41.5628 34.1079 41.7232 34.2716C41.8836 34.4353 41.9737 34.6574 41.9737 34.8889ZM41.9737 27.9048V32.0952C41.9737 32.3268 41.8836 32.5488 41.7232 32.7126C41.5628 32.8763 41.3453 32.9683 41.1184 32.9683H18.8816C18.6547 32.9683 18.4372 32.8763 18.2768 32.7126C18.1164 32.5488 18.0263 32.3268 18.0263 32.0952V27.9048C18.0263 27.6732 18.1164 27.4512 18.2768 27.2874C18.4372 27.1237 18.6547 27.0317 18.8816 27.0317H41.1184C41.3453 27.0317 41.5628 27.1237 41.7232 27.2874C41.8836 27.4512 41.9737 27.6732 41.9737 27.9048ZM18.8816 25.9841C18.6547 25.9841 18.4372 25.8921 18.2768 25.7284C18.1164 25.5647 18.0263 25.3426 18.0263 25.1111V20.9206C18.0263 20.6891 18.1164 20.467 18.2768 20.3033C18.4372 20.1396 18.6547 20.0476 18.8816 20.0476H41.1184C41.3453 20.0476 41.5628 20.1396 41.7232 20.3033C41.8836 20.467 41.9737 20.6891 41.9737 20.9206V25.1111C41.9737 25.3426 41.8836 25.5647 41.7232 25.7284C41.5628 25.8921 41.3453 25.9841 41.1184 25.9841H18.8816Z" fill="url(#paint1_linear_157_3792)"/>
<defs>
<linearGradient id="paint0_linear_157_3792" x1="30" y1="0" x2="30" y2="60" gradientUnits="userSpaceOnUse">
<stop stop-color="#1E1E1E"/>
<stop offset="1" stop-color="#267354"/>
</linearGradient>
<linearGradient id="paint1_linear_157_3792" x1="24.5" y1="19" x2="30" y2="41" gradientUnits="userSpaceOnUse">
<stop stop-color="#D4FFEE"/>
<stop offset="1" stop-color="#55F9B7"/>
</linearGradient>
</defs>
</svg>
