<svg width="60" height="60" viewBox="0 0 60 60" fill="none" xmlns="http://www.w3.org/2000/svg">
<rect x="2" y="2" width="56" height="56" rx="5" fill="url(#paint0_linear_157_3767)" stroke="#F5F5F5" stroke-width="4"/>
<path fill-rule="evenodd" clip-rule="evenodd" d="M29.2633 34.9331L20.2309 29.4372C20.1765 29.4041 20.129 29.3598 20.0915 29.3071C20.054 29.2545 20.0271 29.1944 20.0126 29.1307C19.998 29.0669 19.9961 29.0008 20.0068 28.9362C20.0176 28.8717 20.0408 28.81 20.0752 28.7551L29.1076 14.207C29.1527 14.1428 29.2117 14.0907 29.2799 14.0547C29.3481 14.0187 29.4235 14 29.5 14C29.5765 14 29.6519 14.0187 29.7201 14.0547C29.7883 14.0907 29.8473 14.1428 29.8924 14.207L38.9248 28.7551C38.9592 28.81 38.9824 28.8717 38.9932 28.9362C39.0039 29.0008 39.002 29.0669 38.9874 29.1307C38.9729 29.1944 38.946 29.2545 38.9085 29.3071C38.871 29.3598 38.8235 29.4041 38.7691 29.4372L29.7367 34.9331C29.665 34.9769 29.5832 35 29.5 35C29.4168 35 29.335 34.9769 29.2633 34.9331ZM29.0328 33.6755V16.1241L21.1248 28.8553L29.0328 33.6755ZM29.9734 26.075L29.9672 33.6755L37.8752 28.8553L29.9734 16.1241V26.075Z" fill="url(#paint1_linear_157_3767)"/>
<path d="M38.8855 33.1695C38.8151 33.0842 38.7188 33.027 38.6126 33.0074C38.5065 32.9879 38.3972 33.0072 38.3032 33.0622L29.5282 38.2104H29.4721L20.6972 33.0687C20.6031 33.0131 20.4934 32.9933 20.3869 33.0127C20.2804 33.0321 20.1837 33.0894 20.1131 33.1749C20.0426 33.2604 20.0027 33.3688 20.0001 33.4816C19.9976 33.5944 20.0326 33.7046 20.0993 33.7935L29.1296 45.8188L29.1452 45.8351L29.1888 45.8838L29.2168 45.9098L29.2697 45.9456L29.3009 45.9618L29.3694 45.9878H29.3974C29.464 46.0041 29.5332 46.0041 29.5998 45.9878H29.6278L29.6963 45.9618L29.7275 45.9456L29.7804 45.9098L29.8084 45.8838L29.852 45.8351L29.8676 45.8188L38.8979 33.7935C38.9661 33.7044 39.0022 33.5931 38.9999 33.4791C38.9976 33.3651 38.9571 33.2555 38.8855 33.1695ZM29.0331 39.0716V44.1093L22.279 35.1195L29.0331 39.0716ZM29.9672 44.1093V39.0716L36.7213 35.1195L29.9672 44.1093Z" fill="url(#paint2_linear_157_3767)"/>
<defs>
<linearGradient id="paint0_linear_157_3767" x1="30" y1="0" x2="30" y2="60" gradientUnits="userSpaceOnUse">
<stop stop-color="#1E1E1E"/>
<stop offset="1" stop-color="#552B2B"/>
</linearGradient>
<linearGradient id="paint1_linear_157_3767" x1="29.5" y1="14" x2="36" y2="38" gradientUnits="userSpaceOnUse">
<stop stop-color="#FFB0B0"/>
<stop offset="1" stop-color="#E25E5E"/>
</linearGradient>
<linearGradient id="paint2_linear_157_3767" x1="29.5" y1="33" x2="29.5" y2="46" gradientUnits="userSpaceOnUse">
<stop stop-color="#FF5757"/>
<stop offset="1" stop-color="#FF5757"/>
</linearGradient>
</defs>
</svg>
