<svg width="60" height="60" viewBox="0 0 60 60" fill="none" xmlns="http://www.w3.org/2000/svg">
<rect x="2" y="2" width="56" height="56" rx="5" fill="url(#paint0_linear_157_3775)" stroke="#F5F5F5" stroke-width="4"/>
<path d="M37.9527 27.1626C37.7064 27.1626 37.4622 27.2017 37.2335 27.278V27.1231C37.2324 26.6538 37.0085 26.204 36.6107 25.8722C36.2129 25.5404 35.6737 25.3536 35.1111 25.3528H35.0123C34.6699 25.3552 34.3333 25.4276 34.0322 25.5637C33.9332 25.1647 33.6725 24.8062 33.2939 24.5486C32.9153 24.2911 32.4419 24.1501 31.9534 24.1495C31.5921 24.1492 31.2358 24.2203 30.9139 24.3572V21.7989H34.6685C34.8257 21.7989 34.9765 21.7468 35.0877 21.6541C35.1989 21.5613 35.2613 21.4356 35.2613 21.3044V16.4945C35.2613 16.4293 35.2459 16.3647 35.2158 16.3045C35.1858 16.2443 35.1418 16.1896 35.0863 16.1437C35.0308 16.0977 34.965 16.0614 34.8926 16.0367C34.8202 16.012 34.7427 15.9996 34.6645 16H22.4128C22.2556 16 22.1048 16.0521 21.9936 16.1448C21.8825 16.2376 21.82 16.3634 21.82 16.4945V21.3044C21.82 21.4356 21.8825 21.5613 21.9936 21.6541C22.1048 21.7468 22.2556 21.7989 22.4128 21.7989H26.5626V33.8978L23.0886 31.5242C22.3912 31.0374 21.5012 30.7852 20.5926 30.8169C19.684 30.8486 18.8224 31.162 18.1761 31.6956C18.0722 31.7813 18.0098 31.896 18.0011 32.0177C17.9923 32.1394 18.0378 32.2595 18.1287 32.355L26.5626 41.3484V45.5055C26.5626 45.6366 26.6251 45.7624 26.7362 45.8552C26.8474 45.9479 26.9982 46 27.1554 46C27.3127 46 27.4634 45.9479 27.5746 45.8552C27.6858 45.7624 27.7482 45.6366 27.7482 45.5055V41.1769C27.7477 41.0669 27.7032 40.9602 27.6218 40.8736L19.4171 32.1176C19.86 31.8824 20.3813 31.7712 20.9052 31.8003C21.4291 31.8293 21.9282 31.9971 22.3298 32.2791L26.78 35.322C26.8665 35.3811 26.9714 35.4185 27.0824 35.43C27.1934 35.4415 27.3061 35.4266 27.4073 35.387C27.5086 35.3473 27.5944 35.2846 27.6547 35.206C27.715 35.1274 27.7474 35.0362 27.7482 34.9429V20.1572C27.7493 19.9502 27.8483 19.752 28.0237 19.6056C28.1992 19.4593 28.4368 19.3767 28.6849 19.3758H28.7837C29.0325 19.3758 29.2712 19.458 29.4474 19.6045C29.6237 19.7509 29.7233 19.9496 29.7243 20.1572V30.6703C29.7243 30.8015 29.7868 30.9273 29.898 31.02C30.0091 31.1127 30.1599 31.1648 30.3172 31.1648C30.4744 31.1648 30.6252 31.1127 30.7364 31.02C30.8475 30.9273 30.91 30.8015 30.91 30.6703V25.8901C30.936 25.6783 31.0581 25.4827 31.2514 25.3436C31.4446 25.2045 31.6944 25.1322 31.9494 25.1418C32.1975 25.1426 32.4351 25.2252 32.6106 25.3716C32.786 25.5179 32.885 25.7161 32.8861 25.9231V27.044C32.8861 27.044 32.8861 27.0703 32.8861 27.0835C32.8861 27.0967 32.8861 27.1099 32.8861 27.1231V30.6703C32.8861 30.8015 32.9485 30.9273 33.0597 31.02C33.1709 31.1127 33.3217 31.1648 33.4789 31.1648C33.6361 31.1648 33.7869 31.1127 33.8981 31.02C34.0093 30.9273 34.0717 30.8015 34.0717 30.6703V27.1264C34.0728 26.9194 34.1718 26.7212 34.3472 26.5749C34.5226 26.4285 34.7603 26.3459 35.0084 26.3451H35.1072C35.356 26.3451 35.5946 26.4273 35.7709 26.5737C35.9472 26.7201 36.0468 26.9189 36.0478 27.1264V30.6703C36.0478 30.8015 36.1103 30.9273 36.2214 31.02C36.3326 31.1127 36.4834 31.1648 36.6406 31.1648C36.7979 31.1648 36.9486 31.1127 37.0598 31.02C37.171 30.9273 37.2335 30.8015 37.2335 30.6703V28.8572C37.2196 28.7706 37.2276 28.6826 37.2572 28.5988C37.2867 28.515 37.337 28.4373 37.4048 28.3708C37.4726 28.3043 37.5564 28.2504 37.6508 28.2127C37.7452 28.1749 37.8481 28.1541 37.9527 28.1517C38.1785 28.1516 38.3953 28.2255 38.5564 28.3575C38.7176 28.4894 38.8102 28.6688 38.8143 28.8572V37.3923C38.816 38.0661 38.6576 38.7335 38.3483 39.3559C38.0389 39.9784 37.5848 40.5435 37.0121 41.0187C36.9547 41.0665 36.9096 41.1236 36.8797 41.1866C36.8497 41.2495 36.8356 41.3169 36.8382 41.3846V45.1758C36.8382 45.307 36.9007 45.4328 37.0119 45.5255C37.123 45.6182 37.2738 45.6703 37.4311 45.6703C37.5883 45.6703 37.7391 45.6182 37.8503 45.5255C37.9614 45.4328 38.0239 45.307 38.0239 45.1758V41.5725C39.2984 40.4408 40.0055 38.9451 40 37.3923V28.8572C39.9958 28.4065 39.7783 27.9756 39.3948 27.6581C39.0113 27.3407 38.493 27.1626 37.9527 27.1626ZM28.7877 18.3835H28.6889C28.1249 18.3835 27.5841 18.5704 27.1854 18.903C26.7866 19.2356 26.5626 19.6868 26.5626 20.1572V20.8165H23.0056V16.989H34.0717V20.8099H30.91V20.1506C30.9079 19.6819 30.6835 19.2329 30.2858 18.9018C29.8882 18.5707 29.3495 18.3844 28.7877 18.3835Z" fill="url(#paint1_linear_157_3775)"/>
<defs>
<linearGradient id="paint0_linear_157_3775" x1="30" y1="4" x2="30" y2="56" gradientUnits="userSpaceOnUse">
<stop stop-color="#1E1E1E"/>
<stop offset="1" stop-color="#AF7608"/>
</linearGradient>
<linearGradient id="paint1_linear_157_3775" x1="29" y1="16" x2="38" y2="46" gradientUnits="userSpaceOnUse">
<stop stop-color="#FFEBC3"/>
<stop offset="1" stop-color="#FEC350"/>
</linearGradient>
</defs>
</svg>
