<svg width="60" height="61" viewBox="0 0 60 61" fill="none" xmlns="http://www.w3.org/2000/svg">
<rect x="2" y="2" width="56" height="56" rx="5" fill="url(#paint0_linear_157_3753)" stroke="#F5F5F5" stroke-width="4"/>
<rect x="2" y="3" width="56" height="56" rx="5" fill="url(#paint1_linear_157_3753)" stroke="#F5F5F5" stroke-width="4"/>
<path fill-rule="evenodd" clip-rule="evenodd" d="M44.3038 36.0989H41.6115V25.0073C41.6115 24.8673 41.5548 24.7329 41.4538 24.6339C41.3528 24.5348 41.2159 24.4792 41.0731 24.4792H36.9448V19.3735C36.9448 19.2335 36.8881 19.0991 36.7871 19.0001C36.6862 18.901 36.5492 18.8454 36.4064 18.8454H25.2782C25.1354 18.8454 24.9984 18.901 24.8974 19.0001C24.7965 19.0991 24.7397 19.2335 24.7397 19.3735V24.4792H20.6115C20.4687 24.4792 20.3317 24.5348 20.2308 24.6339C20.1298 24.7329 20.0731 24.8673 20.0731 25.0073V36.0989H17.3807C17.2379 36.0989 17.101 36.1545 17 36.2536C16.899 36.3526 16.8423 36.487 16.8423 36.6271V43.3172C16.8423 43.4573 16.899 43.5916 17 43.6907C17.101 43.7897 17.2379 43.8454 17.3807 43.8454H24.2013C24.3441 43.8454 24.481 43.7897 24.582 43.6907C24.683 43.5916 24.7397 43.4573 24.7397 43.3172V36.6271C24.7397 36.487 24.683 36.3526 24.582 36.2536C24.481 36.1545 24.3441 36.0989 24.2013 36.0989H21.15V25.5355H24.7397V30.289C24.7397 30.4291 24.7965 30.5634 24.8974 30.6625C24.9984 30.7616 25.1354 30.8172 25.2782 30.8172H30.4833H31.5602H36.4064C36.5492 30.8172 36.6862 30.7616 36.7871 30.6625C36.8881 30.5634 36.9448 30.4291 36.9448 30.289V25.5355H40.5346V36.0989H37.4833C37.3405 36.0989 37.2035 36.1545 37.1026 36.2536C37.0016 36.3526 36.9448 36.487 36.9448 36.6271V43.3172C36.9448 43.4573 37.0016 43.5916 37.1026 43.6907C37.2035 43.7897 37.3405 43.8454 37.4833 43.8454H44.3038C44.4466 43.8454 44.5836 43.7897 44.6846 43.6907C44.7856 43.5916 44.8423 43.4573 44.8423 43.3172V36.6271C44.8423 36.487 44.7856 36.3526 44.6846 36.2536C44.5836 36.1545 44.4466 36.0989 44.3038 36.0989ZM17.9192 42.789H23.6628V37.1552H17.9192V42.789ZM25.8166 29.7609H35.8679V19.9017H25.8166V29.7609ZM38.0218 42.789H43.7654V37.1552H38.0218V42.789Z" fill="url(#paint2_linear_157_3753)"/>
<defs>
<linearGradient id="paint0_linear_157_3753" x1="30" y1="0" x2="30" y2="60" gradientUnits="userSpaceOnUse">
<stop stop-color="#1E1E1E"/>
<stop offset="1" stop-color="#224D3B"/>
</linearGradient>
<linearGradient id="paint1_linear_157_3753" x1="30" y1="1" x2="30" y2="61" gradientUnits="userSpaceOnUse">
<stop stop-color="#1A1A1A"/>
<stop offset="1" stop-color="#6E90AF"/>
</linearGradient>
<linearGradient id="paint2_linear_157_3753" x1="24.5" y1="22.0001" x2="42" y2="44.0001" gradientUnits="userSpaceOnUse">
<stop stop-color="#C0E0FC"/>
<stop offset="1" stop-color="#77A4CD"/>
</linearGradient>
</defs>
</svg>
