<svg width="60" height="60" viewBox="0 0 60 60" fill="none" xmlns="http://www.w3.org/2000/svg">
<rect x="2" y="2" width="56" height="56" rx="5" fill="url(#paint0_linear_157_3816)" stroke="#F5F5F5" stroke-width="4"/>
<path fill-rule="evenodd" clip-rule="evenodd" d="M43.5187 25.7641H40.1201C39.0303 21.9272 36.0578 18.9165 32.2349 17.7793V14.4816C32.2349 14.2154 32.0195 14 31.7535 14H26.2471C25.9811 14 25.7658 14.2154 25.7658 14.4816V17.7226C21.8429 18.8128 18.7952 21.8446 17.6824 25.7641H14.4813C14.2153 25.7641 14 25.9796 14 26.2457V31.7549C14 32.0211 14.2153 32.2365 14.4813 32.2365H17.7013C18.8184 36.0781 21.8217 39.0742 25.6664 40.1816V43.5184C25.6664 43.7846 25.8817 44 26.1477 44H31.6545C31.9205 44 32.1358 43.7846 32.1358 43.5184V40.1816C35.9809 39.0749 38.9835 36.0798 40.1003 32.2362H43.5187C43.7847 32.2362 44 32.0207 44 31.7546V26.2457C44 25.9796 43.7847 25.7641 43.5187 25.7641ZM38.0109 25.7641H39.1194C38.0894 22.4602 35.5241 19.8592 32.2352 18.7843V19.9901C32.2352 20.2563 32.0199 20.4717 31.7539 20.4717H29.3826H28.4196H26.2471C25.9811 20.4717 25.7658 20.2563 25.7658 19.9901V18.7223C22.3779 19.7545 19.737 22.3803 18.6832 25.7641H19.9881C20.2541 25.7641 20.4694 25.9796 20.4694 26.2457V28.5179V29.4814V31.7549C20.4694 32.0211 20.2541 32.2365 19.9881 32.2365H18.7037C19.7602 35.5442 22.355 38.1322 25.6664 39.1793V38.0089C25.6664 37.7427 25.8817 37.5273 26.1477 37.5273H28.4196L29.3826 37.5269H31.6545C31.9205 37.5269 32.1358 37.7424 32.1358 38.0086V39.1796C35.4475 38.1332 38.0421 35.5458 39.0978 32.2365H38.0109C37.7449 32.2365 37.5296 32.0211 37.5296 31.7549V29.4814V28.5179V26.2457C37.5296 25.9796 37.7449 25.7641 38.0109 25.7641ZM31.2722 14.9632H26.7285V19.5085H31.2722V14.9632ZM18.0438 26.7274H14.9627V31.273H19.5067V26.7274H18.0452H18.0438ZM26.6291 43.0368H31.1731V38.4905H26.6291V43.0368ZM38.4923 31.273H43.0373V26.7274H38.4923V31.273Z" fill="url(#paint1_linear_157_3816)"/>
<defs>
<linearGradient id="paint0_linear_157_3816" x1="30" y1="0" x2="30" y2="60" gradientUnits="userSpaceOnUse">
<stop stop-color="#1E1E1E"/>
<stop offset="1" stop-color="#5A6B25"/>
</linearGradient>
<linearGradient id="paint1_linear_157_3816" x1="21" y1="15.5" x2="29" y2="44" gradientUnits="userSpaceOnUse">
<stop stop-color="#F2FFCB"/>
<stop offset="1" stop-color="#DCFF74"/>
</linearGradient>
</defs>
</svg>
