<svg width="60" height="60" viewBox="0 0 60 60" fill="none" xmlns="http://www.w3.org/2000/svg">
<rect x="2" y="2" width="56" height="56" rx="5" fill="url(#paint0_linear_157_3805)" stroke="#F5F5F5" stroke-width="4"/>
<path d="M38.3006 15.0005H22.6994C22.2611 14.9894 21.8361 15.149 21.5175 15.4444C21.199 15.7397 21.0129 16.1468 21 16.5764V43.4236C21.0129 43.8532 21.199 44.2603 21.5175 44.5556C21.8361 44.851 22.2611 45.0106 22.6994 44.9995H38.3006C38.7389 45.0106 39.1639 44.851 39.4825 44.5556C39.801 44.2603 39.9871 43.8532 40 43.4236V16.5764C39.9871 16.1468 39.801 15.7397 39.4825 15.4444C39.1639 15.149 38.7389 14.9894 38.3006 15.0005ZM22.0556 19.4831H38.9444V38.7928H22.0556V19.4831ZM22.6994 16.035H38.3006C38.4589 16.0245 38.6151 16.0753 38.7355 16.1766C38.8559 16.2778 38.931 16.4214 38.9444 16.5764V18.4487H22.0556V16.5764C22.069 16.4214 22.1441 16.2778 22.2645 16.1766C22.3849 16.0753 22.5411 16.0245 22.6994 16.035ZM38.3006 43.965H22.6994C22.5411 43.9755 22.3849 43.9247 22.2645 43.8234C22.1441 43.7222 22.069 43.5786 22.0556 43.4236V39.8272H38.9444V43.4236C38.931 43.5786 38.8559 43.7222 38.7355 43.8234C38.6151 43.9247 38.4589 43.9755 38.3006 43.965Z" fill="url(#paint1_linear_157_3805)"/>
<path d="M30.5 43C30.7761 43 31 42.7761 31 42.5C31 42.2239 30.7761 42 30.5 42C30.2239 42 30 42.2239 30 42.5C30 42.7761 30.2239 43 30.5 43Z" fill="url(#paint2_linear_157_3805)"/>
<path d="M32.6271 27.0514C32.4689 26.9931 32.2864 26.984 32.1193 27.026C31.9522 27.068 31.8139 27.1578 31.7345 27.2759L29.0566 31.2954C28.9875 31.4134 28.9814 31.5469 29.0398 31.6682C29.0981 31.7895 29.2164 31.8893 29.3701 31.947C29.5238 32.0046 29.7011 32.0157 29.8654 31.978C30.0297 31.9403 30.1684 31.8565 30.2527 31.7442L32.9306 27.7247C32.9696 27.6655 32.9927 27.6012 32.9985 27.5353C33.0044 27.4695 32.9929 27.4034 32.9647 27.3409C32.9365 27.2784 32.8922 27.2206 32.8343 27.171C32.7763 27.1213 32.7059 27.0807 32.6271 27.0514Z" fill="url(#paint3_linear_157_3805)"/>
<path d="M37.8252 29.6127L35.0352 27.1421C34.9219 27.0486 34.772 26.9977 34.6171 27.0001C34.4622 27.0025 34.3145 27.0581 34.2049 27.1551C34.0954 27.2521 34.0327 27.3829 34.0299 27.5201C34.0272 27.6572 34.0847 27.79 34.1903 27.8903L36.5577 29.9868L34.1903 32.0833C34.1315 32.1317 34.0844 32.1902 34.0518 32.2551C34.0191 32.3201 34.0015 32.3902 34.0001 32.4612C33.9987 32.5323 34.0134 32.6029 34.0435 32.6689C34.0736 32.7348 34.1183 32.7947 34.1751 32.8449C34.2319 32.8952 34.2995 32.9348 34.3739 32.9615C34.4484 32.9881 34.5281 33.0012 34.6084 32.9999C34.6887 32.9987 34.7678 32.9831 34.8412 32.9542C34.9145 32.9252 34.9805 32.8835 35.0352 32.8315L37.8252 30.3609C37.9371 30.2616 38 30.1271 38 29.9868C38 29.8465 37.9371 29.7119 37.8252 29.6127Z" fill="url(#paint4_linear_157_3805)"/>
<path d="M27.8383 27.1552C27.7254 27.0558 27.5723 27 27.4127 27C27.2531 27 27.1 27.0558 26.987 27.1552L24.1762 29.6314C24.0634 29.7309 24 29.8658 24 30.0064C24 30.147 24.0634 30.2819 24.1762 30.3814L26.987 32.8576C27.1012 32.9513 27.2522 33.0023 27.4083 32.9999C27.5643 32.9975 27.7132 32.9418 27.8236 32.8446C27.9339 32.7474 27.9972 32.6162 27.9999 32.4787C28.0027 32.3413 27.9447 32.2082 27.8383 32.1076L25.429 29.9852L27.8383 27.8627C27.9371 27.7654 27.9917 27.6395 27.9917 27.5089C27.9917 27.3784 27.9371 27.2525 27.8383 27.1552Z" fill="url(#paint5_linear_157_3805)"/>
<defs>
<linearGradient id="paint0_linear_157_3805" x1="30" y1="0" x2="30" y2="60" gradientUnits="userSpaceOnUse">
<stop stop-color="#1E1E1E"/>
<stop offset="1" stop-color="#3A2045"/>
</linearGradient>
<linearGradient id="paint1_linear_157_3805" x1="30.5" y1="15" x2="30.5" y2="45" gradientUnits="userSpaceOnUse">
<stop stop-color="#AB64CA"/>
<stop offset="1" stop-color="#DFA9F7"/>
</linearGradient>
<linearGradient id="paint2_linear_157_3805" x1="30.5" y1="42" x2="30.5" y2="43" gradientUnits="userSpaceOnUse">
<stop stop-color="#AB64CA"/>
<stop offset="1" stop-color="#E7AFFF"/>
</linearGradient>
<linearGradient id="paint3_linear_157_3805" x1="31" y1="27" x2="31" y2="32" gradientUnits="userSpaceOnUse">
<stop stop-color="#AB64CA"/>
<stop offset="1" stop-color="#E7AFFF"/>
</linearGradient>
<linearGradient id="paint4_linear_157_3805" x1="36" y1="27" x2="36" y2="33" gradientUnits="userSpaceOnUse">
<stop stop-color="#AB64CA"/>
<stop offset="1" stop-color="#E7AFFF"/>
</linearGradient>
<linearGradient id="paint5_linear_157_3805" x1="26" y1="27" x2="26" y2="33" gradientUnits="userSpaceOnUse">
<stop stop-color="#AB64CA"/>
<stop offset="1" stop-color="#E7AFFF"/>
</linearGradient>
</defs>
</svg>
