<svg width="60" height="60" viewBox="0 0 60 60" fill="none" xmlns="http://www.w3.org/2000/svg">
<rect x="2" y="2" width="56" height="56" rx="5" fill="url(#paint0_linear_157_3798)" stroke="#F5F5F5" stroke-width="4"/>
<path d="M45.19 19H32.4294C31.4305 19 30.618 19.7866 30.618 20.7537V22.2275H16.3264C15.0436 22.2275 14 23.2379 14 24.4801V34.8795C14 36.1211 15.0436 37.1312 16.3264 37.1312H18.5609V41.4923C18.5609 41.6933 18.6832 41.8751 18.8731 41.9567C18.9412 41.9858 19.0133 42 19.0849 42C19.2129 42 19.3395 41.9546 19.4377 41.868L24.823 37.1312H34.1943C35.4767 37.1312 36.5204 36.1211 36.5204 34.8795V29.9342H39.0632L42.866 33.2788C42.9646 33.3655 43.0908 33.4108 43.2188 33.4108C43.2905 33.4108 43.3629 33.3966 43.431 33.3675C43.6209 33.2863 43.7432 33.1042 43.7432 32.9031V29.9342H45.1896C46.1878 29.9342 47 29.1472 47 28.1802V20.7537C47.0004 19.7866 46.1885 19 45.19 19ZM35.4718 34.8792C35.4718 35.5609 34.8988 36.1154 34.1947 36.1154H24.6205C24.4901 36.1154 24.3646 36.1624 24.2678 36.2474L19.6094 40.3448V36.6231C19.6094 36.3425 19.3748 36.1154 19.0849 36.1154H16.3261C15.6216 36.1154 15.0485 35.5609 15.0485 34.8792V24.4798C15.0485 23.7977 15.6216 23.2426 16.3261 23.2426H31.1372C31.1389 23.2426 31.1407 23.243 31.1424 23.243C31.1442 23.243 31.1459 23.2426 31.1477 23.2426H34.1947C34.8992 23.2426 35.4718 23.7977 35.4718 24.4798V34.8792ZM45.9515 28.1802C45.9515 28.5874 45.6099 28.9187 45.19 28.9187H43.2192C42.9297 28.9187 42.6947 29.1459 42.6947 29.4265V31.756L39.6187 29.0508C39.5222 28.9661 39.3964 28.9187 39.266 28.9187H36.5204V24.4801C36.5204 23.2382 35.4767 22.2275 34.1943 22.2275H31.6669V20.7537C31.6669 20.3465 32.0092 20.0155 32.4294 20.0155H45.19C45.6099 20.0155 45.9515 20.3465 45.9515 20.7537V28.1802Z" fill="url(#paint1_linear_157_3798)"/>
<defs>
<linearGradient id="paint0_linear_157_3798" x1="30" y1="0" x2="30" y2="60" gradientUnits="userSpaceOnUse">
<stop stop-color="#1E1E1E"/>
<stop offset="1" stop-color="#5C235A"/>
</linearGradient>
<linearGradient id="paint1_linear_157_3798" x1="30.5" y1="19" x2="42.5" y2="43.5" gradientUnits="userSpaceOnUse">
<stop stop-color="#FFBAFC"/>
<stop offset="1" stop-color="#FF72F9"/>
</linearGradient>
</defs>
</svg>
