<svg width="1160" height="4983" viewBox="0 0 1160 4983" fill="none" xmlns="http://www.w3.org/2000/svg">
<g id="&#209;&#132;&#208;&#190;&#208;&#189;">
<g id="card1bg" filter="url(#filter0_f_157_3698)">
<path d="M644.774 563.675C704.844 564.364 764.044 579.75 816.791 608.502L886.226 646.35C899.554 653.615 910.646 664.381 918.305 677.486V677.486C952.836 736.574 905.396 809.797 837.356 802.427L373.258 752.159C-458.845 550.663 -150.012 554.552 644.774 563.675Z" fill="url(#paint0_linear_157_3698)" fill-opacity="0.6"/>
</g>
<g id="card1bg_2" filter="url(#filter1_f_157_3698)">
<rect width="501" height="464" rx="232" transform="matrix(0.999999 0.00109748 -0.00105373 0.999999 1079 -446)" fill="url(#paint1_linear_157_3698)" fill-opacity="0.6"/>
</g>
<g id="Group 209">
<path id="Vector 208" d="M-84.3312 500.896C36.9782 522.185 -19.377 627.645 85.2357 705.318C203.341 793.008 246.165 768.827 299.808 876" stroke="url(#paint2_linear_157_3698)" stroke-width="2"/>
<path id="Vector 209" d="M-151 327.595C6.44311 355.303 78.1479 552.761 213.921 653.853C367.206 767.984 422.786 736.513 492.407 876" stroke="url(#paint3_linear_157_3698)" stroke-width="2"/>
<path id="Vector 210" d="M-91.7388 171.397C91.7272 203.547 203.334 499.799 361.548 617.098C540.169 749.527 604.935 713.01 686.064 874.86" stroke="url(#paint4_linear_157_3698)" stroke-width="2"/>
<path id="Vector 211" d="M-57.8753 -6.46411C179.149 35.1433 253.953 389.469 458.354 541.274C689.119 712.658 772.792 665.399 877.605 874.86" stroke="url(#paint5_linear_157_3698)" stroke-width="2"/>
<path id="Vector 212" d="M76.5206 -89.6938C369.362 -38.265 299.687 276.033 552.223 463.671C837.331 675.51 940.708 617.096 1070.2 876" stroke="url(#paint6_linear_157_3698)" stroke-width="2"/>
<path id="Vector 213" d="M279.702 -85.1333C590.16 -30.6494 445.934 239.253 713.662 438.038C1015.92 662.461 1125.52 600.576 1262.8 874.86" stroke="url(#paint7_linear_157_3698)" stroke-width="2"/>
<path id="Vector 214" d="M472.301 -85.1333C783.093 -30.6494 638.712 239.253 906.728 438.038C1209.31 662.461 1319.03 600.576 1456.46 874.86" stroke="url(#paint8_linear_157_3698)" stroke-width="2"/>
<path id="Vector 215" d="M607.755 -141C936.259 -83.3455 783.65 202.264 1066.94 412.617C1386.77 650.1 1502.73 584.614 1648 874.86" stroke="url(#paint9_linear_157_3698)" stroke-width="2"/>
</g>
<g id="Group 210">
<path id="Vector 208_2" d="M1263.47 1415.46C1162.95 1432.16 1209.65 1514.87 1122.97 1575.79C1025.1 1644.57 989.613 1625.61 945.162 1709.67" stroke="url(#paint10_linear_157_3698)" stroke-width="2"/>
<path id="Vector 209_2" d="M1318.72 1279.53C1188.26 1301.27 1128.84 1456.14 1016.33 1535.43C889.314 1624.95 843.259 1600.26 785.568 1709.67" stroke="url(#paint11_linear_157_3698)" stroke-width="2"/>
<path id="Vector 210_2" d="M1269.61 1157.02C1117.59 1182.24 1025.1 1414.6 894.002 1506.6C745.99 1610.47 692.323 1581.83 625.096 1708.77" stroke="url(#paint12_linear_157_3698)" stroke-width="2"/>
<path id="Vector 211_2" d="M1241.55 1017.52C1045.14 1050.15 983.16 1328.06 813.785 1447.13C622.565 1581.55 553.23 1544.49 466.378 1708.77" stroke="url(#paint13_linear_157_3698)" stroke-width="2"/>
<path id="Vector 212_2" d="M1130.19 952.241C887.527 992.578 945.262 1239.09 736.002 1386.26C499.751 1552.42 414.088 1506.6 306.784 1709.67" stroke="url(#paint14_linear_157_3698)" stroke-width="2"/>
<path id="Vector 213_2" d="M961.823 955.818C704.566 998.551 824.077 1210.24 602.227 1366.16C351.764 1542.18 260.949 1493.64 147.189 1708.77" stroke="url(#paint15_linear_157_3698)" stroke-width="2"/>
<path id="Vector 214_2" d="M802.229 955.818C544.694 998.551 664.334 1210.24 442.246 1366.16C191.513 1542.18 100.6 1493.64 -13.2823 1708.77" stroke="url(#paint16_linear_157_3698)" stroke-width="2"/>
<path id="Vector 215_2" d="M689.986 912C417.775 957.22 544.233 1181.23 309.488 1346.22C44.4665 1532.49 -51.628 1481.12 -172 1708.77" stroke="url(#paint17_linear_157_3698)" stroke-width="2"/>
</g>
<g id="Group 211">
<path id="Vector 209_3" d="M1161 4930.99C1019.48 4947.66 955.034 5066.48 832.997 5127.32C695.22 5196 645.263 5177.06 582.685 5261" stroke="url(#paint18_linear_157_3698)" stroke-width="2"/>
<path id="Vector 210_3" d="M1107.73 4836.99C942.829 4856.34 842.513 5034.61 700.305 5105.2C539.755 5184.89 481.541 5162.92 408.619 5260.31" stroke="url(#paint19_linear_157_3698)" stroke-width="2"/>
<path id="Vector 211_3" d="M1077.3 4729.96C864.251 4755 797.015 4968.22 613.292 5059.57C405.873 5162.71 330.665 5134.27 236.456 5260.31" stroke="url(#paint20_linear_157_3698)" stroke-width="2"/>
<path id="Vector 212_3" d="M956.497 4679.87C693.281 4710.82 755.907 4899.96 528.92 5012.87C272.656 5140.35 179.737 5105.2 63.3424 5261" stroke="url(#paint21_linear_157_3698)" stroke-width="2"/>
<path id="Vector 213_3" d="M773.871 4682.62C494.821 4715.41 624.456 4877.82 383.813 4997.45C112.133 5132.5 13.6246 5095.26 -109.772 5260.31" stroke="url(#paint22_linear_157_3698)" stroke-width="2"/>
<path id="Vector 214_3" d="M600.757 4682.62C321.407 4715.41 451.181 4877.82 210.279 4997.45C-61.6932 5132.5 -160.308 5095.26 -283.837 5260.31" stroke="url(#paint23_linear_157_3698)" stroke-width="2"/>
<path id="Vector 215_3" d="M479.006 4649C183.736 4683.69 320.906 4855.57 66.2757 4982.15C-221.196 5125.06 -325.431 5085.65 -456 5260.31" stroke="url(#paint24_linear_157_3698)" stroke-width="2"/>
</g>
<g id="Group 212">
<path id="Vector 209_4" d="M1853 3993.56C1666.76 3962.97 1581.95 3744.93 1421.34 3633.3C1240.03 3507.27 1174.28 3542.03 1091.93 3388" stroke="url(#paint25_linear_157_3698)" stroke-opacity="0.5" stroke-width="2"/>
<path id="Vector 210_4" d="M1782.9 4166.04C1565.88 4130.54 1433.87 3803.41 1246.72 3673.89C1035.43 3527.66 958.82 3567.98 862.854 3389.26" stroke="url(#paint26_linear_157_3698)" stroke-opacity="0.5" stroke-width="2"/>
<path id="Vector 211_4" d="M1742.84 4362.44C1462.47 4316.5 1373.99 3925.24 1132.21 3757.61C859.24 3568.37 760.265 3620.55 636.284 3389.26" stroke="url(#paint27_linear_157_3698)" stroke-opacity="0.5" stroke-width="2"/>
<path id="Vector 212_4" d="M1583.87 4454.35C1237.47 4397.56 1319.89 4050.5 1021.17 3843.3C683.924 3609.39 561.641 3673.89 408.463 3388" stroke="url(#paint28_linear_157_3698)" stroke-opacity="0.5" stroke-width="2"/>
<path id="Vector 213_4" d="M1343.53 4449.31C976.297 4389.15 1146.9 4091.11 830.209 3871.61C472.673 3623.8 343.034 3692.13 180.642 3389.26" stroke="url(#paint29_linear_157_3698)" stroke-opacity="0.5" stroke-width="2"/>
<path id="Vector 214_4" d="M1115.71 4449.31C748.081 4389.15 918.866 4091.11 601.835 3871.61C243.915 3623.8 114.136 3692.13 -48.4307 3389.26" stroke="url(#paint30_linear_157_3698)" stroke-opacity="0.5" stroke-width="2"/>
<path id="Vector 215_4" d="M955.485 4511C566.904 4447.34 747.422 4131.96 412.324 3899.68C34.0057 3637.45 -103.169 3709.76 -275 3389.26" stroke="url(#paint31_linear_157_3698)" stroke-opacity="0.5" stroke-width="2"/>
</g>
<g id="card1bg_3" filter="url(#filter2_f_157_3698)">
<path d="M644.774 826.675C704.844 827.364 764.044 842.75 816.791 871.502L886.226 909.35C899.554 916.615 910.646 927.381 918.305 940.486V940.486C952.836 999.574 905.396 1072.8 837.356 1065.43L373.258 1015.16C-458.845 813.663 -150.012 817.552 644.774 826.675Z" fill="url(#paint32_linear_157_3698)" fill-opacity="0.4"/>
</g>
<g id="card1bg_4" filter="url(#filter3_f_157_3698)">
<path d="M509.047 2738.67C569.117 2739.36 628.316 2754.75 681.064 2783.5L750.499 2821.35C763.827 2828.62 774.918 2839.38 782.577 2852.49V2852.49C817.109 2911.57 769.669 2984.8 701.629 2977.43L237.531 2927.16C-594.573 2725.66 -285.739 2729.55 509.047 2738.67Z" fill="url(#paint33_linear_157_3698)" fill-opacity="0.4"/>
</g>
<g id="card1bg_5" filter="url(#filter4_f_157_3698)">
<path d="M762.911 3650.89C822.981 3651.58 882.18 3666.97 934.928 3695.72L1004.36 3733.57C1017.69 3740.83 1028.78 3751.6 1036.44 3764.7V3764.7C1070.97 3823.79 1023.53 3897.01 955.493 3889.64L491.395 3839.38C-340.709 3637.88 -31.8756 3641.77 762.911 3650.89Z" fill="url(#paint34_linear_157_3698)" fill-opacity="0.4"/>
</g>
<g id="card1bg_6" filter="url(#filter5_f_157_3698)">
<path d="M763.047 3650.67C823.117 3651.36 882.316 3666.75 935.064 3695.5L1004.5 3733.35C1017.83 3740.62 1028.92 3751.38 1036.58 3764.49V3764.49C1071.11 3823.57 1023.67 3896.8 955.629 3889.43L491.531 3839.16C-340.572 3637.66 -31.7394 3641.55 763.047 3650.67Z" fill="url(#paint35_linear_157_3698)" fill-opacity="0.4"/>
</g>
<g id="card1bg_7" filter="url(#filter6_f_157_3698)">
<path d="M763.047 4652.67C823.117 4653.36 882.316 4668.75 935.064 4697.5L1004.5 4735.35C1017.83 4742.62 1028.92 4753.38 1036.58 4766.49V4766.49C1071.11 4825.57 1023.67 4898.8 955.629 4891.43L491.531 4841.16C-340.572 4639.66 -31.7394 4643.55 763.047 4652.67Z" fill="url(#paint36_linear_157_3698)" fill-opacity="0.2"/>
</g>
<g id="card1bg_8" filter="url(#filter7_f_157_3698)">
<rect width="385.297" height="356.842" rx="178.421" transform="matrix(0.999999 0.00109748 -0.00105373 0.999999 800.192 2472.13)" fill="url(#paint37_linear_157_3698)" fill-opacity="0.3"/>
</g>
</g>
<defs>
<filter id="filter0_f_157_3698" x="-920.035" y="-239.586" width="2649.9" height="1842.53" filterUnits="userSpaceOnUse" color-interpolation-filters="sRGB">
<feFlood flood-opacity="0" result="BackgroundImageFix"/>
<feBlend mode="normal" in="SourceGraphic" in2="BackgroundImageFix" result="shape"/>
<feGaussianBlur stdDeviation="400" result="effect1_foregroundBlur_157_3698"/>
</filter>
<filter id="filter1_f_157_3698" x="478.756" y="-1045.75" width="1701" height="1664.04" filterUnits="userSpaceOnUse" color-interpolation-filters="sRGB">
<feFlood flood-opacity="0" result="BackgroundImageFix"/>
<feBlend mode="normal" in="SourceGraphic" in2="BackgroundImageFix" result="shape"/>
<feGaussianBlur stdDeviation="300" result="effect1_foregroundBlur_157_3698"/>
</filter>
<filter id="filter2_f_157_3698" x="-920.035" y="23.4142" width="2649.9" height="1842.53" filterUnits="userSpaceOnUse" color-interpolation-filters="sRGB">
<feFlood flood-opacity="0" result="BackgroundImageFix"/>
<feBlend mode="normal" in="SourceGraphic" in2="BackgroundImageFix" result="shape"/>
<feGaussianBlur stdDeviation="400" result="effect1_foregroundBlur_157_3698"/>
</filter>
<filter id="filter3_f_157_3698" x="-1055.76" y="1935.41" width="2649.9" height="1842.53" filterUnits="userSpaceOnUse" color-interpolation-filters="sRGB">
<feFlood flood-opacity="0" result="BackgroundImageFix"/>
<feBlend mode="normal" in="SourceGraphic" in2="BackgroundImageFix" result="shape"/>
<feGaussianBlur stdDeviation="400" result="effect1_foregroundBlur_157_3698"/>
</filter>
<filter id="filter4_f_157_3698" x="-801.898" y="2847.63" width="2649.9" height="1842.53" filterUnits="userSpaceOnUse" color-interpolation-filters="sRGB">
<feFlood flood-opacity="0" result="BackgroundImageFix"/>
<feBlend mode="normal" in="SourceGraphic" in2="BackgroundImageFix" result="shape"/>
<feGaussianBlur stdDeviation="400" result="effect1_foregroundBlur_157_3698"/>
</filter>
<filter id="filter5_f_157_3698" x="-801.762" y="2847.41" width="2649.9" height="1842.53" filterUnits="userSpaceOnUse" color-interpolation-filters="sRGB">
<feFlood flood-opacity="0" result="BackgroundImageFix"/>
<feBlend mode="normal" in="SourceGraphic" in2="BackgroundImageFix" result="shape"/>
<feGaussianBlur stdDeviation="400" result="effect1_foregroundBlur_157_3698"/>
</filter>
<filter id="filter6_f_157_3698" x="-801.762" y="3849.41" width="2649.9" height="1842.53" filterUnits="userSpaceOnUse" color-interpolation-filters="sRGB">
<feFlood flood-opacity="0" result="BackgroundImageFix"/>
<feBlend mode="normal" in="SourceGraphic" in2="BackgroundImageFix" result="shape"/>
<feGaussianBlur stdDeviation="400" result="effect1_foregroundBlur_157_3698"/>
</filter>
<filter id="filter7_f_157_3698" x="200.003" y="1872.32" width="1585.3" height="1556.87" filterUnits="userSpaceOnUse" color-interpolation-filters="sRGB">
<feFlood flood-opacity="0" result="BackgroundImageFix"/>
<feBlend mode="normal" in="SourceGraphic" in2="BackgroundImageFix" result="shape"/>
<feGaussianBlur stdDeviation="300" result="effect1_foregroundBlur_157_3698"/>
</filter>
<linearGradient id="paint0_linear_157_3698" x1="870.189" y1="522.549" x2="885.129" y2="851.608" gradientUnits="userSpaceOnUse">
<stop stop-color="#A3FFDA"/>
<stop offset="1" stop-color="#57FFBB"/>
</linearGradient>
<linearGradient id="paint1_linear_157_3698" x1="252.228" y1="-76.9263" x2="279.035" y2="521.367" gradientUnits="userSpaceOnUse">
<stop stop-color="#F1FFBB"/>
<stop offset="1" stop-color="#F1FFBB" stop-opacity="0.69"/>
</linearGradient>
<linearGradient id="paint2_linear_157_3698" x1="107.739" y1="500.896" x2="107.739" y2="876" gradientUnits="userSpaceOnUse">
<stop stop-color="#57FFBB" stop-opacity="0"/>
<stop offset="0.820833" stop-color="#57FFBB" stop-opacity="0.05"/>
<stop offset="1" stop-color="#57FFBB" stop-opacity="0.25"/>
</linearGradient>
<linearGradient id="paint3_linear_157_3698" x1="170.704" y1="327.595" x2="170.704" y2="876" gradientUnits="userSpaceOnUse">
<stop stop-color="#57FFBB" stop-opacity="0"/>
<stop offset="0.820833" stop-color="#57FFBB" stop-opacity="0.05"/>
<stop offset="1" stop-color="#57FFBB" stop-opacity="0.25"/>
</linearGradient>
<linearGradient id="paint4_linear_157_3698" x1="297.163" y1="171.397" x2="297.163" y2="874.86" gradientUnits="userSpaceOnUse">
<stop stop-color="#57FFBB" stop-opacity="0"/>
<stop offset="0.820833" stop-color="#57FFBB" stop-opacity="0.05"/>
<stop offset="1" stop-color="#57FFBB" stop-opacity="0.25"/>
</linearGradient>
<linearGradient id="paint5_linear_157_3698" x1="409.865" y1="-6.46411" x2="409.865" y2="874.86" gradientUnits="userSpaceOnUse">
<stop stop-color="#57FFBB" stop-opacity="0"/>
<stop offset="0.820833" stop-color="#57FFBB" stop-opacity="0.05"/>
<stop offset="1" stop-color="#57FFBB" stop-opacity="0.25"/>
</linearGradient>
<linearGradient id="paint6_linear_157_3698" x1="573.362" y1="-89.6938" x2="573.362" y2="876" gradientUnits="userSpaceOnUse">
<stop stop-color="#57FFBB" stop-opacity="0"/>
<stop offset="0.820833" stop-color="#57FFBB" stop-opacity="0.05"/>
<stop offset="1" stop-color="#57FFBB" stop-opacity="0.25"/>
</linearGradient>
<linearGradient id="paint7_linear_157_3698" x1="771.252" y1="-85.1333" x2="771.252" y2="874.86" gradientUnits="userSpaceOnUse">
<stop stop-color="#57FFBB" stop-opacity="0"/>
<stop offset="0.820833" stop-color="#57FFBB" stop-opacity="0.05"/>
<stop offset="1" stop-color="#57FFBB" stop-opacity="0.25"/>
</linearGradient>
<linearGradient id="paint8_linear_157_3698" x1="964.38" y1="-85.1333" x2="964.38" y2="874.86" gradientUnits="userSpaceOnUse">
<stop stop-color="#57FFBB" stop-opacity="0"/>
<stop offset="0.820833" stop-color="#57FFBB" stop-opacity="0.05"/>
<stop offset="1" stop-color="#57FFBB" stop-opacity="0.25"/>
</linearGradient>
<linearGradient id="paint9_linear_157_3698" x1="1127.88" y1="-141" x2="1127.88" y2="874.86" gradientUnits="userSpaceOnUse">
<stop stop-color="#57FFBB" stop-opacity="0"/>
<stop offset="0.820833" stop-color="#57FFBB" stop-opacity="0.05"/>
<stop offset="1" stop-color="#57FFBB" stop-opacity="0.25"/>
</linearGradient>
<linearGradient id="paint10_linear_157_3698" x1="1104.32" y1="1415.46" x2="1104.32" y2="1709.67" gradientUnits="userSpaceOnUse">
<stop stop-color="#57FFBB" stop-opacity="0"/>
<stop offset="0.820833" stop-color="#57FFBB" stop-opacity="0.05"/>
<stop offset="1" stop-color="#57FFBB" stop-opacity="0.25"/>
</linearGradient>
<linearGradient id="paint11_linear_157_3698" x1="1052.14" y1="1279.53" x2="1052.14" y2="1709.67" gradientUnits="userSpaceOnUse">
<stop stop-color="#57FFBB" stop-opacity="0"/>
<stop offset="0.820833" stop-color="#57FFBB" stop-opacity="0.05"/>
<stop offset="1" stop-color="#57FFBB" stop-opacity="0.25"/>
</linearGradient>
<linearGradient id="paint12_linear_157_3698" x1="947.355" y1="1157.02" x2="947.355" y2="1708.77" gradientUnits="userSpaceOnUse">
<stop stop-color="#57FFBB" stop-opacity="0"/>
<stop offset="0.820833" stop-color="#57FFBB" stop-opacity="0.05"/>
<stop offset="1" stop-color="#57FFBB" stop-opacity="0.25"/>
</linearGradient>
<linearGradient id="paint13_linear_157_3698" x1="853.965" y1="1017.52" x2="853.965" y2="1708.77" gradientUnits="userSpaceOnUse">
<stop stop-color="#57FFBB" stop-opacity="0"/>
<stop offset="0.820833" stop-color="#57FFBB" stop-opacity="0.05"/>
<stop offset="1" stop-color="#57FFBB" stop-opacity="0.25"/>
</linearGradient>
<linearGradient id="paint14_linear_157_3698" x1="718.485" y1="952.241" x2="718.485" y2="1709.67" gradientUnits="userSpaceOnUse">
<stop stop-color="#57FFBB" stop-opacity="0"/>
<stop offset="0.820833" stop-color="#57FFBB" stop-opacity="0.05"/>
<stop offset="1" stop-color="#57FFBB" stop-opacity="0.25"/>
</linearGradient>
<linearGradient id="paint15_linear_157_3698" x1="554.506" y1="955.818" x2="554.506" y2="1708.77" gradientUnits="userSpaceOnUse">
<stop stop-color="#57FFBB" stop-opacity="0"/>
<stop offset="0.820833" stop-color="#57FFBB" stop-opacity="0.05"/>
<stop offset="1" stop-color="#57FFBB" stop-opacity="0.25"/>
</linearGradient>
<linearGradient id="paint16_linear_157_3698" x1="394.473" y1="955.818" x2="394.473" y2="1708.77" gradientUnits="userSpaceOnUse">
<stop stop-color="#57FFBB" stop-opacity="0"/>
<stop offset="0.820833" stop-color="#57FFBB" stop-opacity="0.05"/>
<stop offset="1" stop-color="#57FFBB" stop-opacity="0.25"/>
</linearGradient>
<linearGradient id="paint17_linear_157_3698" x1="258.993" y1="912" x2="258.993" y2="1708.77" gradientUnits="userSpaceOnUse">
<stop stop-color="#57FFBB" stop-opacity="0"/>
<stop offset="0.820833" stop-color="#57FFBB" stop-opacity="0.05"/>
<stop offset="1" stop-color="#57FFBB" stop-opacity="0.25"/>
</linearGradient>
<linearGradient id="paint18_linear_157_3698" x1="871.842" y1="4930.99" x2="871.842" y2="5261" gradientUnits="userSpaceOnUse">
<stop stop-color="#57FFBB" stop-opacity="0"/>
<stop offset="0.820833" stop-color="#57FFBB" stop-opacity="0.05"/>
<stop offset="1" stop-color="#57FFBB" stop-opacity="0.25"/>
</linearGradient>
<linearGradient id="paint19_linear_157_3698" x1="758.177" y1="4836.99" x2="758.177" y2="5260.31" gradientUnits="userSpaceOnUse">
<stop stop-color="#57FFBB" stop-opacity="0"/>
<stop offset="0.820833" stop-color="#57FFBB" stop-opacity="0.05"/>
<stop offset="1" stop-color="#57FFBB" stop-opacity="0.25"/>
</linearGradient>
<linearGradient id="paint20_linear_157_3698" x1="656.876" y1="4729.96" x2="656.876" y2="5260.31" gradientUnits="userSpaceOnUse">
<stop stop-color="#57FFBB" stop-opacity="0"/>
<stop offset="0.820833" stop-color="#57FFBB" stop-opacity="0.05"/>
<stop offset="1" stop-color="#57FFBB" stop-opacity="0.25"/>
</linearGradient>
<linearGradient id="paint21_linear_157_3698" x1="509.92" y1="4679.87" x2="509.92" y2="5261" gradientUnits="userSpaceOnUse">
<stop stop-color="#57FFBB" stop-opacity="0"/>
<stop offset="0.820833" stop-color="#57FFBB" stop-opacity="0.05"/>
<stop offset="1" stop-color="#57FFBB" stop-opacity="0.25"/>
</linearGradient>
<linearGradient id="paint22_linear_157_3698" x1="332.05" y1="4682.62" x2="332.05" y2="5260.31" gradientUnits="userSpaceOnUse">
<stop stop-color="#57FFBB" stop-opacity="0"/>
<stop offset="0.820833" stop-color="#57FFBB" stop-opacity="0.05"/>
<stop offset="1" stop-color="#57FFBB" stop-opacity="0.25"/>
</linearGradient>
<linearGradient id="paint23_linear_157_3698" x1="158.46" y1="4682.62" x2="158.46" y2="5260.31" gradientUnits="userSpaceOnUse">
<stop stop-color="#57FFBB" stop-opacity="0"/>
<stop offset="0.820833" stop-color="#57FFBB" stop-opacity="0.05"/>
<stop offset="1" stop-color="#57FFBB" stop-opacity="0.25"/>
</linearGradient>
<linearGradient id="paint24_linear_157_3698" x1="11.5032" y1="4649" x2="11.5032" y2="5260.31" gradientUnits="userSpaceOnUse">
<stop stop-color="#57FFBB" stop-opacity="0"/>
<stop offset="0.820833" stop-color="#57FFBB" stop-opacity="0.05"/>
<stop offset="1" stop-color="#57FFBB" stop-opacity="0.25"/>
</linearGradient>
<linearGradient id="paint25_linear_157_3698" x1="1472.46" y1="3993.56" x2="1472.46" y2="3388" gradientUnits="userSpaceOnUse">
<stop stop-color="#57FFBB" stop-opacity="0"/>
<stop offset="0.820833" stop-color="#57FFBB" stop-opacity="0.05"/>
<stop offset="1" stop-color="#57FFBB" stop-opacity="0.25"/>
</linearGradient>
<linearGradient id="paint26_linear_157_3698" x1="1322.88" y1="4166.04" x2="1322.88" y2="3389.26" gradientUnits="userSpaceOnUse">
<stop stop-color="#57FFBB" stop-opacity="0"/>
<stop offset="0.820833" stop-color="#57FFBB" stop-opacity="0.05"/>
<stop offset="1" stop-color="#57FFBB" stop-opacity="0.25"/>
</linearGradient>
<linearGradient id="paint27_linear_157_3698" x1="1189.56" y1="4362.44" x2="1189.56" y2="3389.26" gradientUnits="userSpaceOnUse">
<stop stop-color="#57FFBB" stop-opacity="0"/>
<stop offset="0.820833" stop-color="#57FFBB" stop-opacity="0.05"/>
<stop offset="1" stop-color="#57FFBB" stop-opacity="0.25"/>
</linearGradient>
<linearGradient id="paint28_linear_157_3698" x1="996.167" y1="4454.35" x2="996.167" y2="3388" gradientUnits="userSpaceOnUse">
<stop stop-color="#57FFBB" stop-opacity="0"/>
<stop offset="0.820833" stop-color="#57FFBB" stop-opacity="0.05"/>
<stop offset="1" stop-color="#57FFBB" stop-opacity="0.25"/>
</linearGradient>
<linearGradient id="paint29_linear_157_3698" x1="762.087" y1="4449.31" x2="762.087" y2="3389.26" gradientUnits="userSpaceOnUse">
<stop stop-color="#57FFBB" stop-opacity="0"/>
<stop offset="0.820833" stop-color="#57FFBB" stop-opacity="0.05"/>
<stop offset="1" stop-color="#57FFBB" stop-opacity="0.25"/>
</linearGradient>
<linearGradient id="paint30_linear_157_3698" x1="533.64" y1="4449.31" x2="533.64" y2="3389.26" gradientUnits="userSpaceOnUse">
<stop stop-color="#57FFBB" stop-opacity="0"/>
<stop offset="0.820833" stop-color="#57FFBB" stop-opacity="0.05"/>
<stop offset="1" stop-color="#57FFBB" stop-opacity="0.25"/>
</linearGradient>
<linearGradient id="paint31_linear_157_3698" x1="340.242" y1="4511" x2="340.242" y2="3389.26" gradientUnits="userSpaceOnUse">
<stop stop-color="#57FFBB" stop-opacity="0"/>
<stop offset="0.820833" stop-color="#57FFBB" stop-opacity="0.05"/>
<stop offset="1" stop-color="#57FFBB" stop-opacity="0.25"/>
</linearGradient>
<linearGradient id="paint32_linear_157_3698" x1="870.189" y1="785.549" x2="885.129" y2="1114.61" gradientUnits="userSpaceOnUse">
<stop stop-color="#A3FFDA"/>
<stop offset="1" stop-color="#57FFBB"/>
</linearGradient>
<linearGradient id="paint33_linear_157_3698" x1="734.462" y1="2697.55" x2="749.402" y2="3026.61" gradientUnits="userSpaceOnUse">
<stop stop-color="#A3FFDA"/>
<stop offset="1" stop-color="#57FFBB"/>
</linearGradient>
<linearGradient id="paint34_linear_157_3698" x1="988.326" y1="3609.77" x2="1003.27" y2="3938.83" gradientUnits="userSpaceOnUse">
<stop stop-color="#A3FFDA"/>
<stop offset="1" stop-color="#57FFBB"/>
</linearGradient>
<linearGradient id="paint35_linear_157_3698" x1="988.462" y1="3609.55" x2="1003.4" y2="3938.61" gradientUnits="userSpaceOnUse">
<stop stop-color="#A3FFDA"/>
<stop offset="1" stop-color="#57FFBB"/>
</linearGradient>
<linearGradient id="paint36_linear_157_3698" x1="988.462" y1="4611.55" x2="1003.4" y2="4940.61" gradientUnits="userSpaceOnUse">
<stop stop-color="#A3FFDA"/>
<stop offset="1" stop-color="#57FFBB"/>
</linearGradient>
<linearGradient id="paint37_linear_157_3698" x1="193.977" y1="-59.1607" x2="214.594" y2="400.961" gradientUnits="userSpaceOnUse">
<stop stop-color="#F1FFBB"/>
<stop offset="1" stop-color="#F1FFBB" stop-opacity="0.69"/>
</linearGradient>
</defs>
</svg>
