<svg width="126" height="24" viewBox="0 0 126 24" fill="none" xmlns="http://www.w3.org/2000/svg">
<path d="M19.5185 8.27699H16.1946C16.0668 7.56676 15.8288 6.94176 15.4808 6.40199C15.1328 5.86222 14.7067 5.40412 14.2024 5.0277C13.6982 4.65128 13.1335 4.36719 12.5085 4.17543C11.8906 3.98366 11.2337 3.88778 10.5376 3.88778C9.28054 3.88778 8.15483 4.20384 7.16051 4.83594C6.1733 5.46804 5.39205 6.39489 4.81676 7.61648C4.24858 8.83807 3.96449 10.3295 3.96449 12.0909C3.96449 13.8665 4.24858 15.3651 4.81676 16.5866C5.39205 17.8082 6.17685 18.7315 7.17116 19.3565C8.16548 19.9815 9.28409 20.294 10.527 20.294C11.2159 20.294 11.8693 20.2017 12.4872 20.017C13.1122 19.8253 13.6768 19.5447 14.1811 19.1754C14.6854 18.8061 15.1115 18.3551 15.4595 17.8224C15.8146 17.2827 16.0597 16.6648 16.1946 15.9688L19.5185 15.9794C19.3409 17.0518 18.9964 18.0391 18.4851 18.9411C17.9808 19.8359 17.331 20.6101 16.5355 21.2635C15.7472 21.9098 14.8452 22.4105 13.8295 22.7656C12.8139 23.1207 11.706 23.2983 10.5057 23.2983C8.61648 23.2983 6.93324 22.8509 5.45597 21.956C3.97869 21.054 2.81392 19.7649 1.96165 18.0888C1.11648 16.4126 0.693892 14.4134 0.693892 12.0909C0.693892 9.76136 1.12003 7.76207 1.9723 6.09304C2.82457 4.4169 3.98935 3.13139 5.46662 2.23651C6.94389 1.33452 8.62358 0.883522 10.5057 0.883522C11.6634 0.883522 12.7429 1.05043 13.7443 1.38423C14.7528 1.71094 15.6584 2.19389 16.4609 2.8331C17.2635 3.4652 17.9276 4.23935 18.4531 5.15554C18.9787 6.06463 19.3338 7.10511 19.5185 8.27699ZM22.2119 23V6.63636H25.3973V23H22.2119ZM23.8205 4.11151C23.2666 4.11151 22.7907 3.92685 22.393 3.55753C22.0024 3.18111 21.8071 2.73366 21.8071 2.2152C21.8071 1.68963 22.0024 1.24219 22.393 0.872868C22.7907 0.496448 23.2666 0.308238 23.8205 0.308238C24.3745 0.308238 24.8468 0.496448 25.2375 0.872868C25.6352 1.24219 25.834 1.68963 25.834 2.2152C25.834 2.73366 25.6352 3.18111 25.2375 3.55753C24.8468 3.92685 24.3745 4.11151 23.8205 4.11151ZM36.3311 6.63636V9.19318H27.3929V6.63636H36.3311ZM29.7899 2.71591H32.9753V18.1953C32.9753 18.8132 33.0676 19.2784 33.2522 19.5909C33.4369 19.8963 33.6748 20.1058 33.966 20.2195C34.2643 20.326 34.5875 20.3793 34.9355 20.3793C35.1912 20.3793 35.4149 20.3615 35.6066 20.326C35.7984 20.2905 35.9476 20.2621 36.0541 20.2408L36.6294 22.8722C36.4447 22.9432 36.1819 23.0142 35.841 23.0852C35.5001 23.1634 35.074 23.206 34.5626 23.2131C33.7245 23.2273 32.9433 23.0781 32.2189 22.7656C31.4944 22.4531 30.9085 21.9702 30.4611 21.3168C30.0136 20.6634 29.7899 19.843 29.7899 18.8558V2.71591ZM43.6268 23.3622C42.5898 23.3622 41.6523 23.1705 40.8143 22.7869C39.9762 22.3963 39.3121 21.8317 38.8221 21.093C38.3391 20.3544 38.0976 19.4489 38.0976 18.3764C38.0976 17.4531 38.2752 16.6932 38.6303 16.0966C38.9854 15.5 39.4648 15.0277 40.0685 14.6797C40.6722 14.3317 41.3469 14.0689 42.0927 13.8913C42.8384 13.7138 43.5984 13.5788 44.3725 13.4865C45.3526 13.3729 46.1481 13.2805 46.7589 13.2095C47.3697 13.1314 47.8136 13.0071 48.0905 12.8366C48.3675 12.6662 48.506 12.3892 48.506 12.0057V11.9311C48.506 11.0007 48.2432 10.2798 47.7177 9.76847C47.1992 9.2571 46.4251 9.00142 45.3952 9.00142C44.3228 9.00142 43.4776 9.23935 42.8597 9.7152C42.2489 10.1839 41.8263 10.706 41.592 11.2812L38.5984 10.5994C38.9535 9.60511 39.4719 8.80256 40.1538 8.19176C40.8427 7.57386 41.6346 7.12642 42.5295 6.84943C43.4244 6.56534 44.3654 6.4233 45.3526 6.4233C46.006 6.4233 46.6985 6.50142 47.43 6.65767C48.1687 6.80682 48.8576 7.08381 49.4968 7.48864C50.1431 7.89347 50.6722 8.4723 51.0842 9.22514C51.4961 9.97088 51.7021 10.9403 51.7021 12.1335V23H48.5913V20.7628H48.4634C48.2574 21.1747 47.9485 21.5795 47.5366 21.9773C47.1246 22.375 46.5955 22.7053 45.9492 22.968C45.3029 23.2308 44.5288 23.3622 43.6268 23.3622ZM44.3192 20.8054C45.1999 20.8054 45.9528 20.6314 46.5778 20.2834C47.2099 19.9354 47.6893 19.4808 48.016 18.9197C48.3498 18.3516 48.5167 17.7443 48.5167 17.098V14.9886C48.403 15.1023 48.1829 15.2088 47.8562 15.3082C47.5366 15.4006 47.1708 15.4822 46.7589 15.5533C46.3469 15.6172 45.9457 15.6776 45.555 15.7344C45.1644 15.7841 44.8377 15.8267 44.5749 15.8622C43.957 15.9403 43.3924 16.0717 42.881 16.2564C42.3768 16.4411 41.9719 16.7074 41.6665 17.0554C41.3682 17.3963 41.2191 17.8509 41.2191 18.419C41.2191 19.2074 41.5103 19.804 42.0927 20.2088C42.6751 20.6065 43.4173 20.8054 44.3192 20.8054ZM61.0805 23.3196C59.7595 23.3196 58.5805 22.9822 57.5436 22.3075C56.5137 21.6257 55.7041 20.6562 55.1146 19.3991C54.5322 18.1349 54.241 16.6186 54.241 14.8501C54.241 13.0817 54.5357 11.5689 55.1252 10.3118C55.7218 9.05469 56.5386 8.09233 57.5755 7.42472C58.6124 6.7571 59.7879 6.4233 61.1018 6.4233C62.1174 6.4233 62.9342 6.59375 63.5521 6.93466C64.1771 7.26847 64.66 7.65909 65.0009 8.10653C65.349 8.55398 65.6188 8.94815 65.8106 9.28906H66.0024V1.18182H69.1877V23H66.0769V20.4538H65.8106C65.6188 20.8018 65.3418 21.1996 64.9796 21.647C64.6245 22.0945 64.1345 22.4851 63.5095 22.8189C62.8845 23.1527 62.0748 23.3196 61.0805 23.3196ZM61.7836 20.603C62.6998 20.603 63.4739 20.3615 64.1061 19.8786C64.7453 19.3885 65.2282 18.7102 65.5549 17.8438C65.8887 16.9773 66.0556 15.9687 66.0556 14.8182C66.0556 13.6818 65.8923 12.6875 65.5656 11.8352C65.2389 10.983 64.7595 10.3189 64.1274 9.84304C63.4953 9.36719 62.714 9.12926 61.7836 9.12926C60.8248 9.12926 60.0258 9.37784 59.3866 9.875C58.7474 10.3722 58.2644 11.0504 57.9377 11.9098C57.6181 12.7692 57.4583 13.7386 57.4583 14.8182C57.4583 15.9119 57.6217 16.8956 57.9484 17.7692C58.2751 18.6428 58.758 19.3352 59.3972 19.8466C60.0436 20.3509 60.839 20.603 61.7836 20.603ZM79.7966 23.3303C78.1844 23.3303 76.7959 22.9858 75.6311 22.2969C74.4735 21.6009 73.5786 20.6243 72.9465 19.3672C72.3215 18.103 72.009 16.6222 72.009 14.9247C72.009 13.2486 72.3215 11.7713 72.9465 10.4929C73.5786 9.21449 74.4593 8.21662 75.5885 7.49929C76.7249 6.78196 78.053 6.4233 79.5729 6.4233C80.4962 6.4233 81.3911 6.57599 82.2576 6.88139C83.124 7.18679 83.9017 7.66619 84.5907 8.3196C85.2796 8.97301 85.8229 9.82173 86.2206 10.8658C86.6184 11.9027 86.8172 13.1634 86.8172 14.6477V15.777H73.8094V13.3906H83.6958C83.6958 12.5526 83.5253 11.8104 83.1844 11.1641C82.8435 10.5107 82.3641 9.99574 81.7462 9.61932C81.1354 9.2429 80.4181 9.05469 79.5942 9.05469C78.6993 9.05469 77.9181 9.27486 77.2505 9.7152C76.59 10.1484 76.0786 10.7166 75.7164 11.4197C75.3613 12.1158 75.1837 12.8722 75.1837 13.6889V15.5533C75.1837 16.647 75.3755 17.5774 75.759 18.3445C76.1496 19.1115 76.6929 19.6974 77.389 20.1023C78.085 20.5 78.8982 20.6989 79.8286 20.6989C80.4323 20.6989 80.9827 20.6136 81.4799 20.4432C81.977 20.2656 82.4067 20.0028 82.7689 19.6548C83.1311 19.3068 83.4081 18.8771 83.5999 18.3658L86.6148 18.9091C86.3733 19.7969 85.9401 20.5746 85.3151 21.2422C84.6972 21.9027 83.9195 22.4176 82.982 22.7869C82.0516 23.1491 80.9898 23.3303 79.7966 23.3303ZM92.5469 1.18182V23H89.3615V1.18182H92.5469ZM99.0276 1.18182V23H95.8422V1.18182H99.0276ZM102.323 23V6.63636H105.508V23H102.323ZM103.932 4.11151C103.378 4.11151 102.902 3.92685 102.504 3.55753C102.113 3.18111 101.918 2.73366 101.918 2.2152C101.918 1.68963 102.113 1.24219 102.504 0.872868C102.902 0.496448 103.378 0.308238 103.932 0.308238C104.486 0.308238 104.958 0.496448 105.348 0.872868C105.746 1.24219 105.945 1.68963 105.945 2.2152C105.945 2.73366 105.746 3.18111 105.348 3.55753C104.958 3.92685 104.486 4.11151 103.932 4.11151Z" fill="white"/>
<path d="M111.35 1.18182L116.57 9.7152H116.74L121.961 1.18182H125.774L118.978 12.0909L125.817 23H121.982L116.74 14.5838H116.57L111.328 23H107.493L114.45 12.0909L107.536 1.18182H111.35Z" fill="url(#paint0_radial_178_7441)"/>
<defs>
<radialGradient id="paint0_radial_178_7441" cx="0" cy="0" r="1" gradientUnits="userSpaceOnUse" gradientTransform="translate(102.775 5.19938) rotate(48.4003) scale(31.8274 119.627)">
<stop stop-color="#5EFFBB"/>
<stop offset="1" stop-color="#EBFFBB"/>
</radialGradient>
</defs>
</svg>
